
<svg width="37px" height="40px" viewBox="0 0 37 40" version="1.1" xmlns="http://www.w3.org/2000/svg" xmlns:xlink="http://www.w3.org/1999/xlink">
    <g id="Symbols" stroke="none" stroke-width="1" fill="none" fill-rule="evenodd">
        <path d="M10.775,6.5269 L10.775,2.2819 C10.775,1.0189 11.523,-9.99999993e-05 12.443,-9.99999993e-05 L13.277,-9.99999993e-05 C14.197,-9.99999993e-05 14.945,1.0199 14.945,2.2819 L14.945,6.5269 C14.945,7.7909 14.197,8.8089 13.277,8.8089 L12.443,8.8089 C11.523,8.8089 10.775,7.7909 10.775,6.5269 L10.775,6.5269 Z M21.74,6.5269 L21.74,2.2819 C21.74,1.0189 22.485,-9.99999993e-05 23.406,-9.99999993e-05 L24.24,-9.99999993e-05 C25.162,-9.99999993e-05 25.91,1.0199 25.91,2.2819 L25.91,6.5269 C25.91,7.7909 25.164,8.8089 24.24,8.8089 L23.406,8.8089 C22.487,8.8089 21.74,7.7909 21.74,6.5269 L21.74,6.5269 Z M25.385,32.3859 L25.385,22.6419 C24.722,23.1509 24.081,23.5579 23.459,23.8699 C22.834,24.1849 22.059,24.4819 21.118,24.7709 L21.118,21.4389 C22.501,20.9939 23.574,20.4609 24.34,19.8359 C25.103,19.2089 25.703,18.4389 26.133,17.5229 L29.494,17.5229 L29.494,32.3879 L25.383,32.3879 L25.383,32.3859 L25.385,32.3859 Z M17.959,30.1949 C17.515,30.9759 16.873,31.5779 16.033,31.9999 C15.197,32.4219 14.095,32.6319 12.732,32.6319 C11.404,32.6319 10.356,32.4739 9.586,32.1619 C8.82,31.8529 8.187,31.3939 7.693,30.7909 C7.197,30.1909 6.816,29.4349 6.552,28.5249 L10.611,27.9889 C10.771,28.8039 11.017,29.3709 11.355,29.6849 C11.689,30.0039 12.115,30.1599 12.632,30.1599 C13.177,30.1599 13.629,29.9609 13.996,29.5639 C14.355,29.1659 14.538,28.6319 14.538,27.9659 C14.538,27.2929 14.367,26.7629 14.015,26.3919 C13.668,26.0189 13.193,25.8329 12.595,25.8329 C12.275,25.8329 11.836,25.9119 11.277,26.0729 L11.486,23.1679 C11.712,23.2019 11.889,23.2219 12.016,23.2219 C12.548,23.2219 12.992,23.0549 13.345,22.7109 C13.701,22.3709 13.88,21.9719 13.88,21.5059 C13.88,21.0599 13.748,20.7049 13.483,20.4369 C13.216,20.1719 12.853,20.0429 12.386,20.0429 C11.907,20.0429 11.519,20.1849 11.219,20.4749 C10.918,20.7649 10.72,21.2709 10.611,21.9959 L6.773,21.3079 C7.093,20.0859 7.707,19.1479 8.613,18.4969 C9.519,17.8449 10.804,17.5179 12.466,17.5179 C14.378,17.5179 15.755,17.8729 16.606,18.5839 C17.459,19.2969 17.884,20.1899 17.884,21.2689 C17.884,21.8989 17.713,22.4699 17.365,22.9829 C17.015,23.4959 16.499,23.9429 15.8,24.3299 C16.366,24.4679 16.798,24.6309 17.096,24.8179 C17.582,25.1209 17.957,25.5089 18.228,26.0009 C18.5,26.4899 18.634,27.0719 18.634,27.7499 C18.625,28.5969 18.406,29.4139 17.959,30.1949 L17.959,30.1949 Z M33.346,5.0019 L27.992,5.0019 L27.992,8.0989 C27.992,9.9369 26.5,11.4309 24.658,11.4309 L22.991,11.4309 C21.149,11.4309 19.653,9.9389 19.653,8.0989 L19.653,5.0019 L17.027,5.0019 L17.027,8.0989 C17.027,9.9369 15.536,11.4309 13.692,11.4309 L12.023,11.4309 C10.185,11.4309 8.691,9.9389 8.691,8.0989 L8.691,5.0019 L3.336,5.0019 C1.496,5.0019 0,6.4939 0,8.3359 L0,36.4369 C0,38.2769 1.496,39.7739 3.336,39.7739 L33.343,39.7739 C35.187,39.7739 36.6770125,38.2809 36.6770125,36.4369 L36.6770125,8.3359 C36.682,6.4939 35.189,5.0019 33.346,5.0019 L33.346,5.0019 Z" id="Fill-1" fill="#091033"></path>
    </g>
</svg>