
<svg width="36px" height="36px" viewBox="0 0 36 36" version="1.1" xmlns="http://www.w3.org/2000/svg" xmlns:xlink="http://www.w3.org/1999/xlink">
    <g id="Stylesheet" stroke="none" stroke-width="1" fill="none" fill-rule="evenodd">
        <g id="Platino-Motors-Stylesheet" transform="translate(-229.000000, -3906.000000)">
            <g id="icon/facebook" transform="translate(222.000000, 3899.000000)">
                <polygon id="Fill-1" points="0 50 50 50 50 0 0 0"></polygon>
                <path d="M39.6064,7.168 L10.3934,7.168 C8.6164,7.168 7.1654,8.609 7.1654,10.393 L7.1654,39.602 C7.1654,41.387 8.6164,42.832 10.3934,42.832 L19.6514,42.832 L19.6514,29.096 L16.0594,29.096 L16.0594,22.275 L19.6514,22.275 L19.6514,19.818 C19.6514,17.951 20.3194,16.344 21.6634,15.01 C23.0044,13.666 24.6064,12.992 26.4794,12.992 L33.9414,12.992 L33.9414,18.563 L30.0454,18.563 C29.1514,18.563 28.3884,18.885 27.7524,19.529 C27.1164,20.172 26.7934,20.934 26.7934,21.803 L26.7934,22.275 L32.1074,22.275 L32.1074,29.096 L26.7934,29.096 L26.7934,42.832 L39.6064,42.832 C41.3914,42.832 42.8354,41.387 42.8354,39.602 L42.8354,10.393 C42.8354,8.609 41.3914,7.168 39.6064,7.168" id="Fill-2" fill="#091033"></path>
            </g>
        </g>
    </g>
</svg>