
<svg width="30px" height="30px" viewBox="0 0 30 30" version="1.1" xmlns="http://www.w3.org/2000/svg" xmlns:xlink="http://www.w3.org/1999/xlink">
    <g id="Symbols" stroke="none" stroke-width="1" fill="none" fill-rule="evenodd">
        <g id="footer/desktop" transform="translate(-129.000000, -524.000000)">
            <g id="icon/phone-copy-3" transform="translate(124.000000, 519.000000)">
                <polygon id="Fill-1" points="0 40 40 40 40 0 0 0"></polygon>
                <path d="M31.68552,5.734 C33.11352,5.734 34.26792,6.8876 34.26792,8.314 L34.26792,8.314 L34.26792,31.6812 C34.26792,33.1092 33.11352,34.2652 31.68552,34.2652 L31.68552,34.2652 L8.31512,34.2652 C6.89272,34.2652 5.73192,33.1092 5.73192,31.6812 L5.73192,31.6812 L5.73192,8.314 C5.73192,6.8876 6.89272,5.734 8.31512,5.734 L8.31512,5.734 Z M19.99992,11.7844 C15.48952,11.7844 11.78392,15.4892 11.78392,19.9996 C11.78392,24.5108 15.48952,28.2156 19.99992,28.2156 C24.51032,28.2156 28.21592,24.5108 28.21592,19.9996 C28.21592,15.4892 24.51032,11.7844 19.99992,11.7844 Z M20,14.68392 C22.9,14.68392 25.316,17.10072 25.316,19.99992 C25.316,22.89992 22.9,25.31592 20,25.31592 C17.1,25.31592 14.684,22.89992 14.684,19.99992 C14.684,17.10072 17.1,14.68392 20,14.68392 Z M29.01032,9.0564 C27.88232,9.0564 27.07752,9.862 27.07752,10.99 C27.07752,12.1172 27.88232,12.9228 29.01032,12.9228 C30.13832,12.9228 30.94312,12.1172 30.94312,10.99 C30.94312,9.862 30.13832,9.0564 29.01032,9.0564 Z" id="Combined-Shape" fill="#FFFFFF"></path>
            </g>
        </g>
    </g>
</svg>