
<svg width="24px" height="33px" viewBox="0 0 24 33" version="1.1" xmlns="http://www.w3.org/2000/svg" xmlns:xlink="http://www.w3.org/1999/xlink">
    <g id="Symbols" stroke="none" stroke-width="1" fill="none" fill-rule="evenodd">
        <g id="footer/desktop" transform="translate(-132.000000, -578.000000)">
            <g id="icon/phone-copy-4" transform="translate(124.000000, 575.000000)">
                <polygon id="Fill-1" points="0 40 40 40 40 0 0 0"></polygon>
                <path d="M19.7791958,21.0881432 C16.5682484,21.0881432 13.9686695,18.4843537 13.9686695,15.2725642 C13.9686695,12.0599326 16.5682484,9.45530105 19.7791958,9.45530105 C22.9960379,9.45530105 25.5964589,12.0599326 25.5964589,15.2725642 C25.5964589,18.4843537 22.9960379,21.0881432 19.7791958,21.0881432 M19.7791958,3.63888 C13.3573011,3.63888 8.14888,8.86316304 8.14888,15.3023367 C8.14888,17.4307171 8.72319579,19.4147289 9.71519579,21.1327987 L9.70509053,21.1327987 L19.7791958,35.63888 L29.8591958,21.1327987 L29.8423537,21.1327987 C30.8402484,19.4147289 31.4137221,17.4307171 31.4137221,15.3023367 C31.4137221,8.86316304 26.2069853,3.63888 19.7791958,3.63888 Z" id="Fill-2" fill="#FFFFFF"></path>
            </g>
        </g>
    </g>
</svg>