
<svg width="40px" height="40px" viewBox="0 0 40 40" version="1.1" xmlns="http://www.w3.org/2000/svg" xmlns:xlink="http://www.w3.org/1999/xlink">
    <g id="Stylesheet" stroke="none" stroke-width="1" fill="none" fill-rule="evenodd">
        <g id="Platino-Motors-Stylesheet" transform="translate(-681.000000, -3904.000000)">
            <g id="icon/corrective" transform="translate(676.000000, 3899.000000)">
                <polygon id="Fill-1" points="0 50 50 50 50 0 0 0"></polygon>
                <path d="M9.2324,38.8127 L11.4224,41.0997 L14.5654,40.3377 L15.4214,37.1957 L13.1354,34.9107 L9.9934,35.7657 L9.2324,38.8127 Z M5.4214,39.5767 L7.1364,33.1937 C7.1364,33.1017 7.2324,33.0057 7.2324,33.0057 C7.3264,32.9107 7.3264,32.9107 7.5164,32.8147 L14.2794,31.0977 L14.2794,31.0057 L14.3744,31.0057 L20.3624,25.0177 L21.9164,26.5707 C21.7984,27.0447 21.7244,27.5937 21.7984,28.2427 C21.8224,29.6037 22.2314,30.8397 22.9654,31.8007 L22.9654,31.9767 L23.1364,32.1467 L19.3264,35.9577 C19.3264,35.9577 19.3264,36.0527 19.2324,36.0527 L17.4214,42.9107 C17.4214,42.9107 17.4214,43.0057 17.3264,43.0057 C17.3264,43.0977 17.2304,43.0977 17.1344,43.0977 L10.7534,44.8147 C10.6594,44.9107 10.5664,44.9107 10.4704,44.8147 L10.2794,44.8147 L5.5174,40.0507 C5.5174,39.9577 5.4214,39.8617 5.4214,39.8617 L5.4214,39.5767 Z M42.0844,8.0667 C42.1794,8.0667 42.2744,7.9707 42.2744,7.8757 C42.3704,7.7797 42.3704,7.6837 42.3704,7.5897 C42.3704,7.4947 42.3704,7.4007 42.2744,7.3047 L40.1794,5.3047 C40.1794,5.2087 40.0844,5.2087 39.9884,5.1137 L39.7974,5.1137 L33.3234,6.9237 C33.2284,6.9237 33.2284,6.9237 33.1304,7.0177 C33.1304,7.0177 33.0374,7.1137 33.0374,7.2087 L31.1304,13.9707 L31.1304,14.0667 L24.6814,20.5177 L26.2654,22.1037 C26.7634,21.9587 27.3154,21.8867 27.9214,21.8867 C28.2164,21.8867 28.4644,21.9377 28.6754,22.0137 C29.7614,22.1117 30.7854,22.5007 31.6834,23.1567 L31.7674,23.1567 L31.8984,23.2877 L36.0854,19.0177 L36.1774,18.9237 L43.0354,17.2087 C43.0354,17.1137 43.1304,17.1137 43.2264,17.1137 C43.2264,17.0177 43.2264,16.9237 43.3224,16.8287 L44.0844,13.9707 L44.0844,13.6857 C43.9904,13.5897 43.8944,13.4947 43.7984,13.4947 C43.7044,13.3987 43.6084,13.3987 43.5134,13.3987 L37.3204,15.1137 L35.0374,12.8287 L35.8944,9.7817 L42.0844,8.0667 Z M8.4024,5.9437 C12.8594,8.4907 14.8744,10.7167 14.2364,12.4167 L14.2364,12.5197 L14.2364,12.6287 C14.1304,12.6287 14.2364,12.7327 14.2364,12.7327 L14.3404,12.8397 L14.4504,12.9457 L25.6934,24.1897 C25.7994,24.1897 25.7994,24.1897 25.9044,24.2967 L26.0124,24.2967 C26.5434,23.8717 27.2854,23.7657 27.9214,23.7657 C28.0264,23.7657 28.0264,23.7657 28.1324,23.8717 C29.0884,23.8717 30.0434,24.1897 30.8904,24.9317 L30.8904,25.0397 L30.9984,25.0397 L31.1034,25.1427 L43.4104,37.4517 C44.2584,38.2967 44.5784,39.2537 44.5784,40.5237 C44.5784,40.9557 44.5204,41.3557 44.4104,41.7327 L40.1694,37.4927 C40.0644,37.3867 39.9254,37.3337 39.7914,37.3337 C39.6534,37.3337 39.5154,37.3867 39.4104,37.4927 C39.3044,37.5977 39.2534,37.7347 39.2534,37.8717 C39.2534,38.0097 39.3044,38.1467 39.4104,38.2517 L43.9414,42.7817 C43.7874,43.0317 43.6104,43.2677 43.4084,43.4967 L43.3044,43.4967 L43.3044,43.6017 C43.0914,43.7897 42.8674,43.9537 42.6314,44.0977 L38.0664,39.5317 C37.9614,39.4277 37.8244,39.3747 37.6864,39.3747 C37.5494,39.3747 37.4124,39.4277 37.3074,39.5337 C37.2034,39.6387 37.1504,39.7777 37.1504,39.9147 C37.1504,40.0487 37.2034,40.1877 37.3074,40.2947 L41.5874,44.5727 L41.5874,44.5747 C41.1774,44.7017 40.7554,44.7697 40.3334,44.7697 C39.1664,44.7697 38.2114,44.4537 37.3634,43.6017 L37.2554,43.4967 L24.8454,31.1917 L24.8454,31.0857 L24.7394,30.9807 C24.1814,30.4237 23.8654,29.6877 23.7404,28.9067 C23.6984,28.6467 23.6774,28.3787 23.6774,28.1157 C23.6544,27.9297 23.6464,27.7577 23.6564,27.5937 C23.6804,27.1017 23.8374,26.6837 23.9964,26.2057 C24.1024,26.2057 24.1024,26.2057 24.1024,26.0997 C24.1024,26.0997 24.1024,25.9927 23.9964,25.9927 L12.5394,14.5357 L12.4314,14.4317 L12.2214,14.4317 C12.0104,14.5077 11.7914,14.5487 11.5664,14.5487 C9.9844,14.5487 8.0584,12.5877 5.6464,8.5957 C5.6464,8.4907 5.5374,8.3867 5.6464,8.2777 C5.6464,8.1717 5.6464,8.0667 5.7504,7.9587 L7.8744,5.9437 C7.8744,5.9437 7.9784,5.8377 8.0834,5.8377 C8.1884,5.8377 8.2974,5.8377 8.4024,5.9437 L8.4024,5.9437 Z" id="Fill-2" fill="#FA2E0A"></path>
            </g>
        </g>
    </g>
</svg>