<svg xmlns="http://www.w3.org/2000/svg" xmlns:xlink="http://www.w3.org/1999/xlink" viewBox="0 0 494.96 497.09"><defs><style>.cls-1{fill:url(#linear-gradient);}.cls-2{fill:url(#linear-gradient-2);}</style><linearGradient id="linear-gradient" x1="236.72" y1="454.36" x2="357.05" y2="87.8" gradientUnits="userSpaceOnUse"><stop offset="0" stop-color="#b50d21"/><stop offset="0.95" stop-color="#f72f26"/></linearGradient><linearGradient id="linear-gradient-2" x1="293.09" y1="120.25" x2="82.49" y2="348.74" xlink:href="#linear-gradient"/></defs><g id="Layer_2" data-name="Layer 2"><g id="Layer_1-2" data-name="Layer 1"><path class="cls-1" d="M476.7,291.56,287.91,480.34a57.2,57.2,0,0,1-80.88,0h0V388.6c0-19.3,16.24-34.31,35.52-33.45h.37a107.79,107.79,0,0,0,109.86-84.55v0c14-52.66-5.51-118.46-55-168C262.51,67.37,219,47.34,177.9,43.76l25.49-25.5a62.33,62.33,0,0,1,88.16,0L476.7,203.4A62.35,62.35,0,0,1,476.7,291.56Z"/><path class="cls-2" d="M352.78,270.59a107.8,107.8,0,1,0-213.09-23.13V413L18.26,291.56a62.33,62.33,0,0,1,0-88.16L177.9,43.76c41.14,3.58,84.61,23.61,119.85,58.85C347.27,152.13,366.78,217.93,352.78,270.59Z"/></g></g></svg>