<svg xmlns="http://www.w3.org/2000/svg" xmlns:xlink="http://www.w3.org/1999/xlink" viewBox="0 0 1049.5 230"><defs><style>.cls-1{fill:#01050c;}.cls-2{fill:url(#linear-gradient);}.cls-3{fill:url(#linear-gradient-2);}</style><linearGradient id="linear-gradient" x1="109.53" y1="210.23" x2="165.21" y2="40.63" gradientUnits="userSpaceOnUse"><stop offset="0" stop-color="#b50d21"/><stop offset="0.95" stop-color="#f72f26"/></linearGradient><linearGradient id="linear-gradient-2" x1="135.61" y1="55.64" x2="38.17" y2="161.36" xlink:href="#linear-gradient"/></defs><g id="Layer_2" data-name="Layer 2"><g id="Layer_1-2" data-name="Layer 1"><path class="cls-1" d="M279,77.49h28.47c17.19,0,29.94,13.2,29.94,29.6s-12.75,29.71-30.06,29.71H294.5v23.8H279ZM294.5,91.83v30.63h11.84a15,15,0,0,0,15.48-15.37c0-8.54-6.37-15.26-15.48-15.26Z"/><path class="cls-1" d="M346,76.35h15.48V160.6H346Z"/><path class="cls-1" d="M369.29,127.35c0-22.08,16.17-34.72,33-34.72,8.77,0,16.51,3.53,21.4,9.33V94h15.37v66.6H423.71v-8.66a27.26,27.26,0,0,1-21.63,10C386,162,369.29,149.21,369.29,127.35Zm55.22-.23c0-11.38-8.43-20.49-19.92-20.49s-20.16,9-20.16,20.49,8.77,20.72,20.16,20.72S424.51,138.62,424.51,127.12Z"/><path class="cls-1" d="M503.29,68c6,0,9.68,3.87,9.68,9.68s-3.65,9.56-9.68,9.56c-6.26,0-9.68-3.76-9.68-9.56S497.37,68,503.29,68Zm-7.74,26H511v66.6H495.55Z"/><path class="cls-1" d="M521.05,94H536.3v8.19a24.37,24.37,0,0,1,19.93-9.56c16.73,0,26.41,10.36,26.41,28.46V160.6H567V122.68c0-10.36-5-16.73-15-16.73-8.76,0-15.59,6.37-15.59,18.1V160.6H521.05Z"/><path class="cls-1" d="M590.49,127.35A34.5,34.5,0,1,1,625,162,34.31,34.31,0,0,1,590.49,127.35Zm53.85,0c0-11.27-8.42-20.26-19.35-20.26s-19.36,9-19.36,20.26c0,11.05,8.32,20.15,19.36,20.15S644.34,138.4,644.34,127.35Z"/><path class="cls-1" d="M473.46,76.49,458,82.12V94H446.59v13.77H458v25c0,21.17,6.26,27.78,26.87,27.78H487V146.14c-11.84,0-13.55-1.83-13.55-13.44V107.77H487V94H473.46Z"/><polygon class="cls-1" points="766.46 77.15 766.46 160.64 757.17 160.64 757.17 93.34 724.92 136.87 694.02 94.4 694.02 160.64 684.62 160.64 684.62 77.15 693.17 77.15 725.07 121.33 758.14 77.15 766.46 77.15"/><path class="cls-1" d="M807.85,91.82a35.07,35.07,0,1,0,35,35.12A34.7,34.7,0,0,0,807.85,91.82Zm0,61.3c-14.37,0-25.62-11.5-25.62-26.18s11.25-26.28,25.62-26.28,25.51,11.55,25.51,26.28S822.16,153.12,807.85,153.12Z"/><path class="cls-1" d="M915.69,91.82a35.07,35.07,0,1,0,35,35.12A34.7,34.7,0,0,0,915.69,91.82Zm0,61.3c-14.37,0-25.63-11.5-25.63-26.18s11.26-26.28,25.63-26.28,25.51,11.55,25.51,26.28S930,153.12,915.69,153.12Z"/><path class="cls-1" d="M1000.2,97.13l-5.51,8.1-1.25-.87a14.3,14.3,0,0,0-9-3c-10.89,0-17.13,7.29-17.13,20v39.32h-9.29V93.14h9.07v7.41c4-5.3,10-8.07,17.57-8.07a25.57,25.57,0,0,1,14.1,3.84Z"/><path class="cls-1" d="M1049.5,141.28c0,10-8,20.68-25.42,20.68-10.83,0-20.77-4.72-26.57-12.63l-.85-1.16,7.3-5.84.92,1.26a24.08,24.08,0,0,0,19.31,9.75c11.83,0,16-6.5,16-12.06,0-7-8.21-9-16.9-11.16l-.71-.18c-9.41-2.35-22.31-5.57-22.31-19.09,0-10.92,10.18-19.14,23.66-19.14,9.45,0,18,3.59,23.62,9.87l1,1.17-7.07,5.76-1-1.08c-4.38-4.92-9.66-7.21-16.64-7.21-8.86,0-14.37,4-14.37,10.52,0,6.74,7.86,8.7,17,11C1036.29,124.13,1049.5,127.39,1049.5,141.28Z"/><path class="cls-1" d="M862.61,77.49l-9.07,3.3V93.14H842.08v8.73h11.46V136.1c0,19.27,5.07,24.54,23.55,24.54h2.5V151.8h-1.5c-13.31,0-15.48-2.22-15.48-15.81V101.87h17V93.14h-17Z"/><path class="cls-2" d="M220.57,134.9l-87.36,87.35a26.47,26.47,0,0,1-37.42,0h0V179.8a15.59,15.59,0,0,1,16.44-15.48h.17a49.86,49.86,0,0,0,50.83-39.12h0c6.48-24.36-2.55-54.81-25.46-77.72C121.46,31.17,101.35,21.9,82.31,20.25l11.8-11.8a28.83,28.83,0,0,1,40.79,0l85.67,85.66A28.85,28.85,0,0,1,220.57,134.9Z"/><path class="cls-3" d="M163.23,125.2a49.88,49.88,0,1,0-98.6-10.7v76.59L8.45,134.9a28.83,28.83,0,0,1,0-40.79L82.31,20.25c19,1.65,39.15,10.92,55.46,27.23C160.68,70.39,169.71,100.84,163.23,125.2Z"/></g></g></svg>