<?xml version="1.0" encoding="utf-8"?>
<!-- Generator: Adobe Illustrator 26.0.2, SVG Export Plug-In . SVG Version: 6.00 Build 0)  -->
<svg version="1.1" id="Layer_1" xmlns="http://www.w3.org/2000/svg" xmlns:xlink="http://www.w3.org/1999/xlink" x="0px" y="0px"
	 viewBox="0 0 846.5 230.8" style="enable-background:new 0 0 846.5 230.8;" xml:space="preserve">
<style type="text/css">
	.st0{fill:#FFFFFF;}
	.st1{fill:#E6E6E6;}
</style>
<g id="Layer_2_00000138538351519678311140000008530050491113031307_">
	<g id="Capa_1">
		<path class="st0" d="M281.5,77h29.2c17.6,0,30.7,13.5,30.7,30.4s-13.1,30.5-30.8,30.5h-13.2v24.4h-15.9L281.5,77L281.5,77z
			 M297.3,91.7v31.4h12.1c8.5,0.2,15.6-6.5,15.9-15c0-0.3,0-0.5,0-0.8c0-8.8-6.5-15.7-15.9-15.7L297.3,91.7z"/>
		<path class="st0" d="M348.9,75.8h15.9v86.4h-15.9V75.8z"/>
		<path class="st0" d="M371.7,128.1c0-22.7,16.6-35.6,33.9-35.6c9,0,16.9,3.6,22,9.6v-8.2h15.8v68.3h-15.8v-8.9
			c-5,6.4-13.2,10.3-22.2,10.3C388.9,163.6,371.7,150.5,371.7,128.1z M428.3,127.9c0-11.7-8.6-21-20.4-21s-20.7,9.2-20.7,21
			s9,21.2,20.7,21.2S428.3,139.6,428.3,127.9z"/>
		<path class="st0" d="M449.8,93.9h11.7V83.5l15.9-10.9v21.2h13.9V108h-13.9v25.6c0,11.9,1.8,13.8,13.9,13.8v14.8h-2.2
			c-21.1,0-27.5-6.8-27.5-28.5V108h-11.7L449.8,93.9L449.8,93.9z"/>
		<path class="st0" d="M506.8,67.3c6.2,0,9.9,4,9.9,9.9S513,87,506.8,87c-6.4,0-9.9-3.8-9.9-9.8S500.7,67.3,506.8,67.3z M498.9,93.9
			h15.9v68.3h-15.9V93.9z"/>
		<path class="st0" d="M523.8,93.9h15.7v8.4c4.9-6.3,12.4-10,20.4-9.8c17.2,0,27.1,10.6,27.1,29.2v40.5h-16v-38.9
			c0-10.6-5.1-17.2-15.4-17.2c-9,0-16,6.5-16,18.6v37.5h-15.8V93.9z"/>
		<path class="st0" d="M593.9,128.1c0.1-19.5,16-35.3,35.5-35.3c19.5,0.1,35.3,16,35.3,35.5c-0.1,19.5-15.9,35.3-35.4,35.3
			c-19.4,0.1-35.3-15.5-35.4-35C593.9,128.4,593.9,128.3,593.9,128.1z M649.1,128.1c0-11.6-8.6-20.8-19.8-20.8s-19.8,9.2-19.8,20.8
			c0,11.3,8.5,20.7,19.8,20.7S649.1,139.4,649.1,128.1z"/>
		<path class="st0" d="M679.1,144.6c6,0,9.5,3.9,9.5,9.6s-3.6,9.4-9.6,9.4s-9.5-3.9-9.5-9.4S673.2,144.6,679.1,144.6z"/>
		<path class="st0" d="M701.2,75.8h6.4v31.4c4.7-8.8,14-14.7,26-14.7c18.2,0,30.4,11.9,30.4,31.4v38.3h-6.8v-38.4
			c0-15.2-9-25.2-24.4-25.2c-14.4,0-25.2,11-25.2,25.3v38.3h-6.4V75.8z"/>
		<path class="st0" d="M783.5,93.9h6.4v13.9c4.6-9,14.1-15.3,26.3-15.3c18.2,0,30.4,11.9,30.4,31.4v38.3H840v-38.4
			c0-15.2-9.2-25.1-24.5-25.1c-14.4,0-25.2,10.8-25.2,25.2v38.3h-6.7V93.9H783.5z"/>
		<path class="st0" d="M221.4,135.4l-87.7,87.7c-10.4,10.4-27.2,10.4-37.6,0l0,0v-42.6c0-8.6,7.1-15.6,15.7-15.6c0.3,0,0.5,0,0.8,0
			h0.2c24.3,1,45.8-15.5,51-39.3l0,0c6.5-24.4-2.6-55-25.6-78C121.9,31.3,101.7,22,82.6,20.3L94.4,8.5c11.3-11.3,29.6-11.3,40.9,0
			l0,0l86,86C232.7,105.8,232.7,124.1,221.4,135.4z"/>
		<path class="st1" d="M163.8,125.7c5.8-27-11.4-53.7-38.4-59.5s-53.7,11.4-59.5,38.4c-0.7,3.4-1.1,6.8-1.1,10.3v76.9L8.5,135.4
			c-11.3-11.3-11.3-29.6,0-40.9l0,0l74.1-74.1c19.1,1.7,39.3,11,55.7,27.3C161.3,70.7,170.3,101.2,163.8,125.7z"/>
	</g>
</g>
</svg>
