
<svg width="162px" height="53px" viewBox="0 0 162 53" version="1.1" xmlns="http://www.w3.org/2000/svg" xmlns:xlink="http://www.w3.org/1999/xlink">
    <defs>
        <linearGradient x1="37.1529954%" y1="91.4061496%" x2="52.6588033%" y2="17.6666975%" id="linearGradient-ylsr0ljml3-1">
            <stop stop-color="#0CA878" offset="0%"></stop>
            <stop stop-color="#69F3BF" offset="100%"></stop>
        </linearGradient>
        <linearGradient x1="37.1529954%" y1="91.4061496%" x2="52.6588033%" y2="17.6666975%" id="linearGradient-ylsr0ljml3-2">
            <stop stop-color="#FFFFFF" offset="0%"></stop>
            <stop stop-color="#FFFFFF" offset="100%"></stop>
        </linearGradient>
        <linearGradient x1="80.0792842%" y1="20.7152892%" x2="24.7514712%" y2="82.5977523%" id="linearGradient-ylsr0ljml3-3">
            <stop stop-color="#0CA878" offset="0%"></stop>
            <stop stop-color="#69F3BF" offset="100%"></stop>
        </linearGradient>
        <linearGradient x1="80.0792842%" y1="20.7152892%" x2="24.7514712%" y2="82.5977523%" id="linearGradient-ylsr0ljml3-4">
            <stop stop-color="#FFFFFF" offset="0%"></stop>
            <stop stop-color="#FFFFFF" offset="100%"></stop>
        </linearGradient>
    </defs>
    <g id="Financiamiento" stroke="none" stroke-width="1" fill="none" fill-rule="evenodd">
        <g transform="translate(-125.000000, -626.000000)" fill-rule="nonzero" id="logo/company/capital">
            <g transform="translate(125.000000, 626.134860)">
                <g id="logo_capital" transform="translate(0.000000, -0.000000)">
                    <path d="M50.265591,30.6910285 L30.3495557,50.5635059 C27.9932927,52.9130977 24.1749346,52.9130977 21.8186716,50.5635059 L21.8186716,50.5635059 L21.8186716,40.9059596 C21.8240878,39.9351612 22.2280271,39.0090111 22.9362901,38.3434889 C23.6445531,37.6779667 24.5952246,37.3312513 25.5666068,37.3841972 L25.6053628,37.3841972 C31.1213519,37.6196122 36.0092079,33.8655974 37.1934131,28.4842393 L37.1934131,28.4842393 C38.6707014,22.942241 36.6120728,16.0147432 31.389129,10.8026257 C27.6708308,7.09203493 23.0862214,4.98307253 18.7455471,4.60769087 L21.4356709,1.92314326 C22.6684345,0.691834591 24.3410827,0 26.0852535,0 C27.8294244,0 29.5020726,0.691834591 30.7348362,1.92314326 L50.265591,21.4111389 C52.8325892,23.9740797 52.8325892,28.1280877 50.265591,30.6910285 Z" id="Path" fill="url(#linearGradient-ylsr0ljml3-2)"></path>
                    <path d="M37.1602722,28.4451455 C38.0930223,24.2016755 36.51611,19.7990065 33.0999828,17.1089981 C29.6838555,14.4189897 25.0290525,13.9145328 21.1146317,15.8101046 C17.2002109,17.7056764 14.7143093,21.6680443 14.7138444,26.0125493 L14.7138444,43.4249364 L1.92438895,30.6503962 C0.692282716,29.4210456 0,27.7530281 0,26.013686 C0,24.2743439 0.692282716,22.6063264 1.92438895,21.3769758 L18.7387211,4.58524173 C23.0640977,4.9603617 27.6512733,7.06785392 31.3642676,10.775858 C36.5797611,15.984342 38.6354532,22.9070106 37.1602722,28.4451455 Z" id="Path" fill="url(#linearGradient-ylsr0ljml3-4)"></path>
                    <path d="M64.1933842,2.56234097 L70.8309978,2.56234097 C74.8399436,2.56234097 77.8142494,5.64709851 77.8142494,9.47912376 C77.8142494,13.311149 74.8353957,16.4209674 70.7991627,16.4209674 L67.7998437,16.4209674 L67.7998437,21.9821883 L64.1933842,21.9821883 L64.1933842,2.56234097 Z M67.8043915,5.91365437 L67.8043915,13.069654 L70.5603996,13.069654 C71.521537,13.0973225 72.4519422,12.7288427 73.1344232,12.0502319 C73.8169042,11.3716211 74.1917318,10.4422697 74.171407,9.47912376 C74.171407,7.4833722 72.686528,5.91365437 70.5603996,5.91365437 L67.8043915,5.91365437 Z" id="Shape" fill="#FFFFFF"></path>
                    <polygon id="Path" fill="#FFFFFF" points="79.56743 2.29262087 83.2086514 2.29262087 83.2086514 21.9821883 79.56743 21.9821883"></polygon>
                    <path d="M84.692112,14.3071787 C84.692112,9.15281447 88.4692101,6.20356234 92.4057755,6.20356234 C94.45607,6.20356234 96.2626073,7.02735036 97.4176065,8.38136657 L97.4176065,6.52215439 L101.010178,6.52215439 L101.010178,22.0671708 L97.3971036,22.0671708 L97.3971036,20.0463869 C96.1605427,21.5582584 94.2983789,22.4204079 92.3442667,22.3857628 C88.6036183,22.3857628 84.692112,19.4092028 84.692112,14.3071787 Z M97.5930206,14.2548386 C97.5930206,11.5968706 95.6247379,9.47595783 92.9388521,9.47595783 C90.2529663,9.47595783 88.230009,11.574114 88.230009,14.2548386 C88.230009,16.9355631 90.2803035,19.0906108 92.9388521,19.0906108 C95.5974006,19.0906108 97.5930206,16.9378388 97.5930206,14.2548386 Z" id="Shape" fill="#FFFFFF"></path>
                    <path d="M102.493639,6.45007796 L105.149194,6.45007796 L105.149194,4.08763284 L108.770406,1.61832061 L108.770406,6.45007796 L111.933842,6.45007796 L111.933842,9.66291238 L108.770406,9.66291238 L108.770406,15.4769376 C108.770406,18.1849955 109.168967,18.6101901 111.933842,18.6101901 L111.933842,21.9821883 L111.428239,21.9821883 C106.615899,21.9821883 105.149194,20.4337522 105.149194,15.501949 L105.149194,9.66291238 L102.493639,9.66291238 L102.493639,6.45007796 Z" id="Path" fill="#FFFFFF"></path>
                    <path d="M115.508755,0.404580153 C116.894314,0.404580153 117.732824,1.31378096 117.732824,2.65939815 C117.732824,4.00501535 116.894314,4.88921313 115.508755,4.88921313 C114.067145,4.88921313 113.282443,4.01410735 113.282443,2.65939815 C113.282443,1.30468895 114.145615,0.404580153 115.508755,0.404580153 Z M113.728602,6.45531152 L117.288907,6.45531152 L117.288907,21.9821883 L113.728602,21.9821883 L113.728602,6.45531152 Z" id="Shape" fill="#FFFFFF"></path>
                    <path d="M119.351145,6.52460818 L122.924381,6.52460818 L122.924381,8.44427473 C124.032815,6.99569036 125.767391,6.16354591 127.591978,6.20504419 C131.512485,6.20504419 133.78117,8.62916532 133.78117,12.8679534 L133.78117,22.1170483 L130.125686,22.1170483 L130.125686,13.2400172 C130.125686,10.8158961 128.951361,9.3230757 126.604997,9.3230757 C124.548787,9.3230757 122.949513,10.8158961 122.949513,13.5595812 L122.949513,22.1170483 L119.351145,22.1170483 L119.351145,6.52460818 Z" id="Path" fill="#FFFFFF"></path>
                    <path d="M135.264963,14.3352609 C135.279981,9.90728386 138.879084,6.32846019 143.307072,6.33844323 C147.735061,6.34846811 151.317956,9.94351776 151.312972,14.3715175 C151.307977,18.7995173 147.71699,22.3866402 143.28899,22.3866402 C141.15243,22.3987446 139.100227,21.5535389 137.591986,20.040181 C136.083745,18.5268232 135.245493,16.4717692 135.264963,14.3352609 Z M147.790883,14.3352609 C147.790883,11.7135024 145.831369,9.62244577 143.28899,9.62244577 C140.746612,9.62244577 138.787098,11.7135024 138.787098,14.3352609 C138.787098,16.9048565 140.719396,19.0231286 143.28899,19.0231286 C145.858584,19.0231286 147.790883,16.8957847 147.790883,14.3352609 Z" id="Shape" fill="#FFFFFF"></path>
                    <path d="M64.0591875,36.0100008 C64.0284844,33.3534421 65.0647205,30.7966757 66.9334845,28.9180782 C68.8022485,27.0394808 71.3456316,25.997792 73.9882846,26.0286567 C77.4986869,26.0299779 80.7483643,27.8916337 82.5387814,30.9270144 L80.2872186,32.3105896 C79.0446643,29.997033 76.84752,28.5063276 73.9882846,28.5063276 C69.8048674,28.5063276 66.653133,31.8592751 66.653133,36.0122802 C66.653133,40.1652852 69.8116697,43.4635279 73.9610754,43.4635279 C77.1105424,43.4635279 79.3076867,41.8132669 80.5003575,39.360669 L82.8040712,40.5846886 C81.10803,43.8054329 77.958563,45.9867862 73.9882846,45.9867862 C71.3477357,46.0132315 68.8076089,44.9707514 66.9399397,43.094112 C65.0722705,41.2174727 64.034087,38.6644561 64.0591875,36.0100008 L64.0591875,36.0100008 Z" id="Path" fill="#FFFFFF"></path>
                    <path d="M84.9618321,37.909331 C84.9618321,33.2592199 88.4792257,29.8040712 92.9027875,29.8040712 C95.116851,29.8040712 97.3811303,30.8670188 98.6342446,32.6992946 L98.6342446,30.1227279 L101.145038,30.1227279 L101.145038,45.6686207 L98.6342446,45.6686207 L98.6342446,43.0374271 C98.0089178,43.9837131 97.1326673,44.7385253 96.1029081,45.2179491 C95.1105178,45.714105 94.0174422,45.9772624 92.9073526,45.9872774 C88.5340066,45.9872774 84.9618321,42.5344048 84.9618321,37.909331 Z M98.8214128,37.8820176 C98.8214128,34.695451 96.3425747,32.114332 93.1447367,32.114332 C90.0267875,32.114332 87.520559,34.6931749 87.520559,37.8820176 C87.520559,41.0708603 90.0313526,43.6497031 93.1447367,43.6497031 C96.3425747,43.6405987 98.8214128,41.0981737 98.8214128,37.8820176 Z" id="Shape" fill="#FFFFFF"></path>
                    <path d="M107.120551,43.2554114 L107.120551,52.8651399 L104.651399,52.8651399 L104.651399,30.1323751 L107.120551,30.1323751 L107.120551,32.7679259 C108.369919,30.8778986 110.629704,29.8040712 112.834873,29.8040712 C117.217901,29.8040712 120.699746,33.2649415 120.699746,37.922753 C120.699746,42.5805645 117.165559,46.014076 112.834873,46.014076 C110.522746,46.0231956 108.31075,45.0656426 107.120551,43.2554114 Z M118.175977,37.9045139 C118.175977,34.7126704 115.67269,32.1272773 112.595922,32.1272773 C109.300686,32.1272773 106.906634,34.7103906 106.906634,37.9045139 C106.906634,41.0986372 109.298411,43.6817505 112.595922,43.6817505 C115.677241,43.6726309 118.175977,41.1259958 118.175977,37.9045139 Z" id="Shape" fill="#FFFFFF"></path>
                    <path d="M124.800453,24.5445293 C125.968649,24.5445293 126.633588,25.2630709 126.633588,26.3283375 C126.633588,27.393604 125.968649,28.1395187 124.800453,28.1395187 C123.632256,28.1395187 122.992366,27.420977 122.992366,26.3283375 C122.992366,25.2356979 123.70968,24.5445293 124.800453,24.5445293 Z M123.522951,30.1377489 L126.071123,30.1377489 L126.071123,45.7175573 L123.522951,45.7175573 L123.522951,30.1377489 Z" id="Shape" fill="#FFFFFF"></path>
                    <path d="M128.521628,30.1779807 L131.246072,30.1779807 L131.246072,27.2171937 L133.76235,25.4885496 L133.76235,30.1688706 L137.422392,30.1688706 L137.422392,32.446399 L133.76235,32.446399 L133.76235,39.6798293 C133.76235,42.7909332 134.322794,43.3238749 137.422392,43.3238749 L137.422392,45.7175573 L137.040375,45.7175573 C132.465323,45.7175573 131.243784,44.3874806 131.243784,39.7071597 L131.243784,32.4646192 L128.521628,32.4646192 L128.521628,30.1779807 Z" id="Path" fill="#FFFFFF"></path>
                    <path d="M139.040712,37.909331 C139.040712,33.2592199 142.558106,29.8040712 146.981668,29.8040712 C149.193449,29.8040712 151.460011,30.8670188 152.713125,32.6992946 L152.713125,30.1227279 L155.223919,30.1227279 L155.223919,45.6686207 L152.713125,45.6686207 L152.713125,43.0374271 C152.086455,43.9834004 151.20958,44.7380704 150.179506,45.2179491 C149.187312,45.714639 148.09411,45.9778267 146.98395,45.9872774 C142.610604,45.9872774 139.040712,42.5344048 139.040712,37.909331 Z M152.898011,37.8820176 C152.898011,34.695451 150.419173,32.114332 147.221335,32.114332 C144.103385,32.114332 141.599439,34.6931749 141.599439,37.8820176 C141.599439,41.0708603 144.110233,43.6497031 147.221335,43.6497031 C150.419173,43.6405987 152.898011,41.0981737 152.898011,37.8820176 Z" id="Shape" fill="#FFFFFF"></path>
                    <polygon id="Path" fill="#FFFFFF" points="158.59542 26.0279898 161.157761 26.0279898 161.157761 45.7175573 158.59542 45.7175573"></polygon>
                </g>
            </g>
        </g>
    </g>
</svg>