<?xml version="1.0" encoding="UTF-8"?>
<svg width="191px" height="230px" viewBox="0 0 191 230" version="1.1" xmlns="http://www.w3.org/2000/svg" xmlns:xlink="http://www.w3.org/1999/xlink">
    <title>logo/pm-isotipo-white 2</title>
    <defs>
        <polygon id="path-1" points="0 0 146.896528 0 146.896528 229.999 0 229.999"></polygon>
        <polygon id="path-3" points="39.2787926 20.2532 165.278793 20.2532 165.278793 191.0932 39.2787926 191.0932"></polygon>
    </defs>
    <g id="Symbols" stroke="none" stroke-width="1" fill="none" fill-rule="evenodd">
        <g id="logo/pm-isotipo-white" transform="translate(-39.000000, 0.000000)">
            <g id="Group-3" transform="translate(82.313200, -0.000000)">
                <mask id="mask-2" fill="white">
                    <use xlink:href="#path-1"></use>
                </mask>
                <g id="Clip-2"></g>
                <path d="M138.26,134.9032 L50.9,222.2532 C40.564,232.5812 23.816,232.5812 13.48,222.2532 L13.48,179.8032 C13.528,171.1932 20.547,164.2522 29.157,164.3002 C29.411,164.3012 29.666,164.3092 29.92,164.3232 L30.09,164.3232 C54.285,165.3582 75.726,148.8572 80.92,125.2032 C87.4,100.8432 78.37,70.3932 55.46,47.4832 C39.15,31.1732 19.04,21.9032 0,20.2532 L11.8,8.4532 C23.054,-2.8108 41.308,-2.8188 52.572,8.4352 L52.59,8.4532 L138.26,94.1132 C149.594,105.3122 149.829,123.4512 138.631,134.7852 C138.549,134.8672 138.468,134.9492 138.26,134.9032" id="Fill-1" fill="#E6E6E6" mask="url(#mask-2)"></path>
            </g>
            <mask id="mask-4" fill="white">
                <use xlink:href="#path-3"></use>
            </mask>
            <g id="Clip-5"></g>
            <path d="M163.2332,125.2032 C169.1402,98.2962 152.1152,71.6952 125.2082,65.7882 C98.3002,59.8822 71.7002,76.9062 65.7932,103.8142 C65.0222,107.3252 64.6332,110.9082 64.6332,114.5032 L64.6332,191.0932 L8.4532,134.9032 C-2.8108,123.6492 -2.8188,105.3952 8.4352,94.1312 C8.4412,94.1252 8.4472,94.1192 8.4532,94.1132 L82.3132,20.2532 C101.3132,21.9032 121.4632,31.1732 137.7732,47.4832 C160.6832,70.3932 169.7132,100.8432 163.2332,125.2032" id="Fill-4" fill="#E6E6E6" mask="url(#mask-4)"></path>
        </g>
    </g>
</svg>