
<svg width="582px" height="436px" viewBox="0 0 582 436" version="1.1" xmlns="http://www.w3.org/2000/svg" xmlns:xlink="http://www.w3.org/1999/xlink">
    <defs>
        <linearGradient x1="37.0884097%" y1="91.4053266%" x2="52.6746591%" y2="17.6603182%" id="linearGradient-v2l0xbvw_m-1">
            <stop stop-color="#E94E1B" offset="0%"></stop>
            <stop stop-color="#FF9900" offset="100%"></stop>
        </linearGradient>
        <linearGradient x1="80.3959713%" y1="20.7169782%" x2="24.4694293%" y2="82.5986614%" id="linearGradient-v2l0xbvw_m-2">
            <stop stop-color="#E94E1B" offset="0%"></stop>
            <stop stop-color="#FF9900" offset="100%"></stop>
        </linearGradient>
        <linearGradient x1="37.319729%" y1="91.4053266%" x2="52.6267409%" y2="17.6603182%" id="linearGradient-v2l0xbvw_m-3">
            <stop stop-color="#40013C" offset="16%"></stop>
            <stop stop-color="#731565" offset="82%"></stop>
        </linearGradient>
        <linearGradient x1="79.6400717%" y1="20.7169782%" x2="25.1043341%" y2="82.5986614%" id="linearGradient-v2l0xbvw_m-4">
            <stop stop-color="#40013C" offset="16%"></stop>
            <stop stop-color="#731565" offset="82%"></stop>
        </linearGradient>
        <linearGradient x1="37.0884097%" y1="91.4053266%" x2="52.6746591%" y2="17.6603182%" id="linearGradient-v2l0xbvw_m-5">
            <stop stop-color="#117187" offset="0%"></stop>
            <stop stop-color="#0B91AF" offset="26%"></stop>
            <stop stop-color="#05B3DA" offset="59%"></stop>
            <stop stop-color="#01C9F5" offset="85%"></stop>
            <stop stop-color="#00D1FF" offset="100%"></stop>
        </linearGradient>
        <linearGradient x1="80.3959713%" y1="20.7169782%" x2="24.4694293%" y2="82.5986614%" id="linearGradient-v2l0xbvw_m-6">
            <stop stop-color="#117187" offset="0%"></stop>
            <stop stop-color="#0B91AF" offset="26%"></stop>
            <stop stop-color="#05B3DA" offset="59%"></stop>
            <stop stop-color="#01C9F5" offset="85%"></stop>
            <stop stop-color="#00D1FF" offset="100%"></stop>
        </linearGradient>
        <linearGradient x1="37.2465136%" y1="91.4053266%" x2="52.6419076%" y2="17.6603182%" id="linearGradient-v2l0xbvw_m-7">
            <stop stop-color="#0CA878" offset="0%"></stop>
            <stop stop-color="#69F3BF" offset="100%"></stop>
        </linearGradient>
        <linearGradient x1="79.7324728%" y1="20.7169782%" x2="25.0267234%" y2="82.5986614%" id="linearGradient-v2l0xbvw_m-8">
            <stop stop-color="#0CA878" offset="0%"></stop>
            <stop stop-color="#69F3BF" offset="100%"></stop>
        </linearGradient>
        <linearGradient x1="37.3138971%" y1="91.4053266%" x2="52.627949%" y2="17.6603182%" id="linearGradient-v2l0xbvw_m-9">
            <stop stop-color="#181863" offset="0%"></stop>
            <stop stop-color="#1A3889" offset="26%"></stop>
            <stop stop-color="#1D5AB2" offset="59%"></stop>
            <stop stop-color="#1E70CC" offset="85%"></stop>
            <stop stop-color="#1F78D5" offset="100%"></stop>
        </linearGradient>
        <linearGradient x1="79.8651376%" y1="20.7169782%" x2="24.9152939%" y2="82.5986614%" id="linearGradient-v2l0xbvw_m-10">
            <stop stop-color="#181863" offset="0%"></stop>
            <stop stop-color="#1A3889" offset="26%"></stop>
            <stop stop-color="#1D5AB2" offset="59%"></stop>
            <stop stop-color="#1E70CC" offset="85%"></stop>
            <stop stop-color="#1F78D5" offset="100%"></stop>
        </linearGradient>
        <linearGradient x1="37.1048476%" y1="91.4188519%" x2="52.6748566%" y2="17.6764675%" id="linearGradient-v2l0xbvw_m-11">
            <stop stop-color="#B50D21" offset="0%"></stop>
            <stop stop-color="#F72F26" offset="95%"></stop>
        </linearGradient>
        <linearGradient x1="80.2030061%" y1="59.0435495%" x2="27.4204045%" y2="0.255209553%" id="linearGradient-v2l0xbvw_m-12">
            <stop stop-color="#B50D21" offset="0%"></stop>
            <stop stop-color="#F72F26" offset="100%"></stop>
        </linearGradient>
        <linearGradient x1="52.3482826%" y1="-19.708945%" x2="46.4065917%" y2="104.343043%" id="linearGradient-v2l0xbvw_m-13">
            <stop stop-color="#09BC8A" offset="5%"></stop>
            <stop stop-color="#004346" offset="100%"></stop>
        </linearGradient>
        <linearGradient x1="2.0714891%" y1="150.096981%" x2="86.954326%" y2="-18.239211%" id="linearGradient-v2l0xbvw_m-14">
            <stop stop-color="#09BC8A" offset="6%"></stop>
            <stop stop-color="#004346" offset="100%"></stop>
        </linearGradient>
        <linearGradient x1="37.2465136%" y1="91.4053266%" x2="52.6419076%" y2="17.6603182%" id="linearGradient-v2l0xbvw_m-15">
            <stop stop-color="#DBB100" offset="0%"></stop>
            <stop stop-color="#FDE312" offset="100%"></stop>
        </linearGradient>
        <linearGradient x1="79.7324728%" y1="20.7169782%" x2="25.0267234%" y2="82.5986614%" id="linearGradient-v2l0xbvw_m-16">
            <stop stop-color="#DBB100" offset="0%"></stop>
            <stop stop-color="#FDE312" offset="100%"></stop>
        </linearGradient>
    </defs>
    <g id="Sobre-Nosotros" stroke="none" stroke-width="1" fill="none" fill-rule="evenodd">
        <g id="About" transform="translate(-896.000000, -555.000000)" fill-rule="nonzero">
            <g id="icons-copy" transform="translate(896.000000, 555.000000)">
                <g id="iso_ferreteria" transform="translate(0.000000, 269.000000)">
                    <path d="M160.597856,97.8229776 L96.9636,161.16414 C89.4336473,168.655591 77.2292519,168.655591 69.6992992,161.16414 L69.6992992,161.16414 L69.6992992,130.379916 C69.7170364,127.287409 71.0069297,124.337182 73.2684209,122.21667 C75.5299121,120.096157 78.5654866,118.99056 81.6678246,119.157493 L81.777935,119.157493 C99.4030556,119.902749 115.019659,107.939277 118.808552,90.7893065 L118.808552,90.7893065 C123.528939,73.1241177 116.955825,51.0414404 100.262126,34.4293961 C88.384561,22.601773 73.7302986,15.8826157 59.8611714,14.681745 L68.4785096,6.12792416 C72.4183937,2.20437764 77.7631142,0 83.336237,0 C88.9093598,0 94.2540803,2.20437764 98.1939644,6.12792416 L160.597856,68.2443893 C164.540731,72.1655059 166.75612,77.4858418 166.75612,83.0336834 C166.75612,88.5815251 164.540731,93.901861 160.597856,97.8229776 Z" id="Path" fill="url(#linearGradient-v2l0xbvw_m-1)"></path>
                    <path d="M119.084519,90.9502369 C122.106918,77.4126923 117.065424,63.3511199 106.108378,54.7576074 C95.1513317,46.164095 80.2102763,44.5535332 67.6520753,50.6122343 C55.0938742,56.6709354 47.1323256,69.3308529 47.1601012,83.1971892 L47.1601012,138.701963 L6.16797797,97.9841751 C2.21888307,94.0655644 0,88.7486287 0,83.2043327 C0,77.6600366 2.21888307,72.3431009 6.16797797,68.4244902 L60.0441619,14.891315 C73.9495494,16.0914182 88.6125407,22.8062814 100.508839,34.6263455 C117.228869,51.2277732 123.812351,73.2963377 119.084519,90.9502369 Z" id="Path" fill="url(#linearGradient-v2l0xbvw_m-2)"></path>
                </g>
                <g id="iso_inmobiliaria" transform="translate(169.000000, 202.000000)">
                    <path d="M106.767275,65.6243321 L64.4625008,108.116613 C59.4565028,113.142237 51.3428824,113.142237 46.3368845,108.116613 L46.3368845,108.116613 L46.3368845,87.4650833 C46.3486763,85.3904816 47.206212,83.4113286 48.709677,81.9887873 C50.2131421,80.566246 52.2312264,79.8245585 54.2936958,79.9365457 L54.3668985,79.9365457 C66.0842785,80.4364986 76.4663737,72.4108298 78.9852729,60.9058091 L78.9852729,60.9058091 C82.1234393,49.0551555 77.7535585,34.2410394 66.655398,23.0968856 C58.7590584,15.1623503 49.0167385,10.6548182 39.7963855,9.84921676 L45.5252897,4.11090461 C48.1445693,1.47880195 51.6978001,0 55.4028753,0 C59.1079506,0 62.6611814,1.47880195 65.280461,4.11090461 L106.767275,45.7816003 C109.388544,48.4120729 110.86136,51.9812087 110.86136,55.7029662 C110.86136,59.4247237 109.388544,62.9938595 106.767275,65.6243321 Z" id="Path" fill="url(#linearGradient-v2l0xbvw_m-3)"></path>
                    <path d="M78.8879984,60.7283458 C80.8901984,51.6467135 77.5504408,42.2135381 70.2919035,36.448599 C63.0333663,30.6836598 53.1356066,29.603218 44.8163779,33.6676844 C36.4971492,37.7321509 31.2229907,46.2250291 31.2413907,55.5272306 L31.2413907,92.7624873 L4.08600077,65.447048 C1.46990764,62.8182566 0,59.2514018 0,55.5320228 C0,51.8126438 1.46990764,48.2457891 4.08600077,45.6169976 L39.7764864,9.70438328 C48.9881639,10.5094699 58.701719,15.0141213 66.5824679,22.9435856 C77.6587159,34.0806174 82.0199688,48.8852659 78.8879984,60.7283458 Z" id="Path" fill="url(#linearGradient-v2l0xbvw_m-4)"></path>
                </g>
                <g id="iso_software" transform="translate(415.000000, 175.208194)">
                    <path d="M160.597856,97.8229776 L96.9636,161.16414 C89.4336473,168.655591 77.2292519,168.655591 69.6992992,161.16414 L69.6992992,161.16414 L69.6992992,130.379916 C69.7170364,127.287409 71.0069297,124.337182 73.2684209,122.21667 C75.5299121,120.096157 78.5654866,118.99056 81.6678246,119.157493 L81.777935,119.157493 C99.4030556,119.902749 115.019659,107.939277 118.808552,90.7893065 L118.808552,90.7893065 C123.528939,73.1241177 116.955825,51.0414404 100.262126,34.4293961 C88.384561,22.601773 73.7302986,15.8826157 59.8611714,14.681745 L68.4785096,6.12792416 C72.4183937,2.20437764 77.7631142,0 83.336237,0 C88.9093598,0 94.2540803,2.20437764 98.1939644,6.12792416 L160.597856,68.2443893 C164.540731,72.1655059 166.75612,77.4858418 166.75612,83.0336834 C166.75612,88.5815251 164.540731,93.901861 160.597856,97.8229776 Z" id="Path" fill="url(#linearGradient-v2l0xbvw_m-5)"></path>
                    <path d="M119.084519,90.9502369 C122.106918,77.4126923 117.065424,63.3511199 106.108378,54.7576074 C95.1513317,46.164095 80.2102763,44.5535332 67.6520753,50.6122343 C55.0938742,56.6709354 47.1323256,69.3308529 47.1601012,83.1971892 L47.1601012,138.701963 L6.16797797,97.9841751 C2.21888307,94.0655644 0,88.7486287 0,83.2043327 C0,77.6600366 2.21888307,72.3431009 6.16797797,68.4244902 L60.0441619,14.891315 C73.9495494,16.0914182 88.6125407,22.8062814 100.508839,34.6263455 C117.228869,51.2277732 123.812351,73.2963377 119.084519,90.9502369 Z" id="Path" fill="url(#linearGradient-v2l0xbvw_m-6)"></path>
                </g>
                <g id="iso_capital" transform="translate(282.000000, 275.985649)">
                    <path d="M126.294043,77.5184038 L76.1776842,127.712192 C70.247328,133.648683 60.6355262,133.648683 54.7051699,127.712192 L54.7051699,127.712192 L54.7051699,103.317679 C54.7191391,100.867066 55.735019,98.5292018 57.516099,96.8488322 C59.2971791,95.1684625 61.6879031,94.2923481 64.1312078,94.4246323 L64.2179274,94.4246323 C78.0989235,95.0151991 90.3980743,85.5349192 93.3820886,71.9446729 L93.3820886,71.9446729 C97.099718,57.9461495 91.9229379,40.4470512 78.7755003,27.283077 C69.4211003,17.9104481 57.8798595,12.5859491 46.9569668,11.6343365 L53.7437141,4.85598487 C56.8466441,1.74682718 61.0559795,0 65.4451975,0 C69.8344155,0 74.0437509,1.74682718 77.1466809,4.85598487 L126.294043,54.0792793 C129.399329,57.1865114 131.1441,61.4025347 131.1441,65.7988415 C131.1441,70.1951484 129.399329,74.4111716 126.294043,77.5184038 Z" id="Path" fill="url(#linearGradient-v2l0xbvw_m-7)"></path>
                    <path d="M93.4136048,72.0954025 C95.7844688,61.358297 91.8297634,50.2055664 83.2347154,43.3897477 C74.6396674,36.5739289 62.9194383,35.2965354 53.0683944,40.1019056 C43.2173504,44.9072758 36.9720638,54.9483042 36.9938518,65.9461861 L36.9938518,109.968986 L4.83835398,77.6742678 C1.74056097,74.566279 0,70.3492292 0,65.9518519 C0,61.5544745 1.74056097,57.3374247 4.83835398,54.2294359 L47.1005102,11.7703807 C58.0083291,12.722225 69.5104361,18.0480206 78.8422632,27.4229316 C91.9579751,40.5901113 97.1222632,58.0934705 93.4136048,72.0954025 Z" id="Path" fill="url(#linearGradient-v2l0xbvw_m-8)"></path>
                </g>
                <g id="iso_repuestos" transform="translate(305.000000, 124.000000)">
                    <path d="M106.900796,65.6912957 L64.5431159,108.226936 C59.5308576,113.257688 51.4070905,113.257688 46.3948322,108.226936 L46.3948322,108.226936 L46.3948322,87.5543334 C46.4066388,85.4776147 47.2652469,83.4964422 48.7705921,82.0724493 C50.2759373,80.6484564 52.2965454,79.9060122 54.3615941,80.0181136 L54.4348883,80.0181136 C66.1669218,80.5185766 76.5620006,72.4847184 79.0840498,60.9679579 L79.0840498,60.9679579 C82.2261407,49.1052118 77.8507951,34.2759792 66.7387555,23.1204538 C58.8325409,15.1778221 49.0780376,10.6656905 39.8461538,9.85926698 L45.5822225,4.11509941 C48.2047776,1.48031093 51.762452,0 55.4721607,0 C59.1818694,0 62.7395438,1.48031093 65.362099,4.11509941 L106.900796,45.8283162 C109.525343,48.461473 111,52.0342507 111,55.7598059 C111,59.4853612 109.525343,63.0581389 106.900796,65.6912957 Z" id="Path" fill="url(#linearGradient-v2l0xbvw_m-9)"></path>
                    <path d="M79.267745,61.0760278 C81.2795831,51.9851285 77.9237487,42.5423274 70.6302707,36.7715057 C63.3367927,31.000684 53.3913877,29.9191396 45.0321124,33.9877535 C36.6728371,38.0563674 31.3732901,46.5579117 31.3917787,55.8696054 L31.3917787,93.1428571 L4.10566973,65.799545 C1.4769834,63.1680711 0,59.5975767 0,55.8744024 C0,52.1512282 1.4769834,48.5807338 4.10566973,45.9492598 L39.9679602,10 C49.2239803,10.8059081 58.984294,15.3151561 66.9029788,23.2527117 C78.0325451,34.4011078 82.4147918,49.2208631 79.267745,61.0760278 Z" id="Path" fill="url(#linearGradient-v2l0xbvw_m-10)"></path>
                </g>
                <g id="logo/iso/motors-copy" transform="translate(175.000000, 0.000000)">
                    <path d="M160.712612,97.9491551 L97.0580571,161.375649 C89.5270967,168.874784 77.3230669,168.874784 69.7921065,161.375649 L69.7921065,161.375649 L69.7921065,130.551898 C69.8094488,127.54958 71.0229243,124.6771 73.1655715,122.566396 C75.3082187,120.455693 78.2045151,119.279671 81.217283,119.297054 L81.7710543,119.297054 L81.8949242,119.297054 C99.5267409,120.054438 115.152478,108.070207 118.932024,90.8912784 L118.932024,90.8912784 C123.653653,73.2030196 117.073975,51.0926962 100.380685,34.4573099 C88.4964612,22.6288315 73.8433808,15.8977084 59.9699522,14.699612 L68.5679805,6.13140784 C76.7740284,-2.04380261 90.0761352,-2.04380261 98.2821832,6.13140784 L98.2821832,6.13140784 L160.705325,68.3307611 C164.683583,72.2057849 166.948538,77.5007152 167,83.0441974 C167.049729,88.5876795 164.881795,93.9227888 160.974925,97.869282 C160.912793,97.9478657 160.808208,97.9797114 160.712612,97.9491551 Z" id="Path" fill="url(#linearGradient-v2l0xbvw_m-11)"></path>
                    <path d="M118.932024,90.9058008 C121.917488,77.3525744 116.870247,63.2908824 105.936209,54.6992598 C95.0021704,46.1076372 80.1034886,44.4964513 67.5745567,50.5507215 C55.0456247,56.6049917 47.0889706,69.2604054 47.0874828,83.1363275 L47.0874828,138.749782 L6.15212459,97.9491551 C-2.0507082,89.774063 -2.0507082,76.5203756 6.15212459,68.3452835 L6.15212459,68.3452835 L59.9699522,14.699612 C73.814235,15.8977084 88.4964612,22.6288315 100.380685,34.4718323 C117.073975,51.1072185 123.653653,73.217542 118.932024,90.9058008 Z" id="Path" fill="url(#linearGradient-v2l0xbvw_m-12)"></path>
                </g>
                <g id="logo/iso/transporte-copy" transform="translate(418.000000, 18.000000)">
                    <path d="M126.398205,77.4826531 L76.3494872,127.689796 C70.4376923,133.616327 60.8310256,133.616327 54.885641,127.689796 C54.885641,127.689796 54.885641,127.689796 54.885641,127.689796 L54.885641,127.689796 L54.885641,103.310204 C54.9192308,98.3602041 58.9164103,94.3867347 63.8541026,94.4204082 C63.9884615,94.4204082 64.1564103,94.4204082 64.2907692,94.4204082 L64.3915385,94.4204082 C78.2641026,95.0265306 90.5579487,85.5306122 93.5474359,71.9265306 L93.5474359,71.9265306 C97.2758974,57.9183673 92.0694872,40.4418367 78.9694872,27.2755102 C69.6315385,17.9142857 58.1102564,12.5938776 47.1935897,11.6173469 L53.9451282,4.84897959 C60.394359,-1.61632653 70.874359,-1.61632653 77.3235897,4.84897959 C77.3235897,4.84897959 77.3235897,4.84897959 77.3235897,4.84897959 L126.431795,54.0795918 C132.780256,60.5112245 132.713077,70.9836735 126.398205,77.4826531 Z" id="Path" fill="url(#linearGradient-v2l0xbvw_m-13)"></path>
                    <path d="M93.5474359,71.9265306 C96.94,56.4704082 87.1989744,41.1826531 71.7812821,37.7816327 C56.3635897,34.3806122 41.1138462,44.1459184 37.7212821,59.6020408 C37.2846154,61.622449 37.0494872,63.7102041 37.0494872,65.7642857 L37.0494872,109.77551 L4.83692308,77.4826531 C-1.61230769,71.0173469 -1.61230769,60.5112245 4.83692308,54.0459184 C4.83692308,54.0459184 4.83692308,54.0459184 4.83692308,54.0459184 L47.16,11.6173469 C58.0766667,12.5602041 69.5979487,17.8806122 78.9358974,27.2418367 C92.0694872,40.4081633 97.2423077,57.9183673 93.5474359,71.9265306 Z" id="Path" fill="url(#linearGradient-v2l0xbvw_m-14)"></path>
                </g>
                <g id="iso_logistics" transform="translate(45.000000, 107.000000)">
                    <path d="M126.294043,77.5184038 L76.1776842,127.712192 C70.247328,133.648683 60.6355262,133.648683 54.7051699,127.712192 L54.7051699,127.712192 L54.7051699,103.317679 C54.7191391,100.867066 55.735019,98.5292018 57.516099,96.8488322 C59.2971791,95.1684625 61.6879031,94.2923481 64.1312078,94.4246323 L64.2179274,94.4246323 C78.0989235,95.0151991 90.3980743,85.5349192 93.3820886,71.9446729 L93.3820886,71.9446729 C97.099718,57.9461495 91.9229379,40.4470512 78.7755003,27.283077 C69.4211003,17.9104481 57.8798595,12.5859491 46.9569668,11.6343365 L53.7437141,4.85598487 C56.8466441,1.74682718 61.0559795,0 65.4451975,0 C69.8344155,0 74.0437509,1.74682718 77.1466809,4.85598487 L126.294043,54.0792793 C129.399329,57.1865114 131.1441,61.4025347 131.1441,65.7988415 C131.1441,70.1951484 129.399329,74.4111716 126.294043,77.5184038 Z" id="Path" fill="url(#linearGradient-v2l0xbvw_m-15)"></path>
                    <path d="M93.4136048,72.0954025 C95.7844688,61.358297 91.8297634,50.2055664 83.2347154,43.3897477 C74.6396674,36.5739289 62.9194383,35.2965354 53.0683944,40.1019056 C43.2173504,44.9072758 36.9720638,54.9483042 36.9938518,65.9461861 L36.9938518,109.968986 L4.83835398,77.6742678 C1.74056097,74.566279 0,70.3492292 0,65.9518519 C0,61.5544745 1.74056097,57.3374247 4.83835398,54.2294359 L47.1005102,11.7703807 C58.0083291,12.722225 69.5104361,18.0480206 78.8422632,27.4229316 C91.9579751,40.5901113 97.1222632,58.0934705 93.4136048,72.0954025 Z" id="Path" fill="url(#linearGradient-v2l0xbvw_m-16)"></path>
                </g>
            </g>
        </g>
    </g>
</svg>