
<svg width="36px" height="42px" viewBox="0 0 36 42" version="1.1" xmlns="http://www.w3.org/2000/svg" xmlns:xlink="http://www.w3.org/1999/xlink">
    <g id="Stylesheet" stroke="none" stroke-width="1" fill="none" fill-rule="evenodd">
        <g id="Platino-Motors-Stylesheet" transform="translate(-1138.000000, -3838.000000)">
            <g id="icon/quote" transform="translate(1131.000000, 3834.000000)">
                <polygon id="Fill-1" points="0 50 50 50 50 0 0 0"></polygon>
                <path d="M11.742,21.908 L38.252,21.908 L38.252,8.974 L11.742,8.974 L11.742,21.908 Z M31.621,29.385 L38.252,29.385 L38.252,26.203 L31.621,26.203 L31.621,29.385 Z M31.621,35.203 L38.252,35.203 L38.252,32.019 L31.621,32.019 L31.621,35.203 Z M31.621,41.027 L38.252,41.027 L38.252,37.843 L31.621,37.843 L31.621,41.027 Z M21.683,29.385 L28.314,29.385 L28.314,26.203 L21.683,26.203 L21.683,29.385 Z M21.683,35.203 L28.314,35.203 L28.314,32.019 L21.683,32.019 L21.683,35.203 Z M21.683,41.027 L28.314,41.027 L28.314,37.843 L21.683,37.843 L21.683,41.027 Z M11.742,29.385 L18.371,29.385 L18.371,26.203 L11.742,26.203 L11.742,29.385 Z M11.742,35.203 L18.371,35.203 L18.371,32.019 L11.742,32.019 L11.742,35.203 Z M11.742,41.027 L18.371,41.027 L18.371,37.843 L11.742,37.843 L11.742,41.027 Z M36.955,4.059 L13.039,4.059 C9.789,4.059 7.148,6.699 7.148,9.953 L7.148,40.049 C7.148,43.297 9.789,45.941 13.039,45.941 L36.955,45.941 C40.205,45.941 42.852,43.297 42.852,40.049 L42.852,9.953 C42.852,6.699 40.205,4.059 36.955,4.059 L36.955,4.059 Z" id="Fill-2" fill="#FFFFFF"></path>
            </g>
        </g>
    </g>
</svg>