
<svg width="38px" height="40px" viewBox="0 0 38 40" version="1.1" xmlns="http://www.w3.org/2000/svg" xmlns:xlink="http://www.w3.org/1999/xlink">
    <g id="Stylesheet" stroke="none" stroke-width="1" fill="none" fill-rule="evenodd">
        <g id="Platino-Motors-Stylesheet" transform="translate(-617.000000, -3904.000000)">
            <g id="icon/preventive" transform="translate(611.000000, 3899.000000)">
                <polygon id="Fill-1" points="0 50 50 50 50 0 0 0"></polygon>
                <path d="M34.2579,20.9931 C34.7889,22.2231 35.0899,23.5751 35.0899,25.0011 C35.0899,30.5731 30.5739,35.0971 24.9979,35.0971 C19.4239,35.0971 14.9059,30.5731 14.9059,25.0011 C14.9059,19.4291 19.4239,14.9051 24.9979,14.9051 C27.6309,14.9051 30.0179,15.9231 31.8149,17.5711 L24.6879,25.7411 L21.4689,22.8091 C20.6389,22.0501 19.3439,22.1141 18.5859,22.9421 C17.8219,23.7741 17.8829,25.0691 18.7169,25.8251 L23.4789,30.1651 C23.8579,30.5131 24.3479,30.7001 24.8539,30.7001 C24.8929,30.7001 24.9299,30.7001 24.9689,30.6941 C25.5219,30.6631 26.0289,30.4131 26.3949,30.0031 L34.2579,20.9931 Z M24.9979,38.6671 C17.4429,38.6671 11.3319,32.5481 11.3319,25.0011 C11.3319,17.4541 17.4429,11.3331 24.9979,11.3331 C32.5429,11.3331 38.6599005,17.4541 38.6599005,25.0011 C38.6619,32.5501 32.5429,38.6671 24.9979,38.6671 L24.9979,38.6671 Z M44.0389,18.9461 L38.9959,15.1531 L36.7699,8.6731 L29.9079,8.5571 L24.9979,5.1141 L20.0839,8.5571 L13.2419,8.6731 L11.0139,15.1381 L5.9609,18.9461 L7.8179,25.0111 L5.9669,31.0561 L10.9999,34.8521 L13.2329,41.3291 L20.0919,41.4461 L25.0079,44.8861 L29.9199,41.4461 L36.7659,41.3291 L38.9879,34.8621 L44.0389,31.0501 L42.1879,24.9911 L44.0389,18.9461 Z" id="Fill-2" fill="#FA2E0A"></path>
            </g>
        </g>
    </g>
</svg>