
<svg width="30px" height="30px" viewBox="0 0 30 30" version="1.1" xmlns="http://www.w3.org/2000/svg" xmlns:xlink="http://www.w3.org/1999/xlink">
    <g id="Symbols" stroke="none" stroke-width="1" fill="none" fill-rule="evenodd">
        <g id="footer/desktop" transform="translate(-129.000000, -468.000000)">
            <g id="icon/phone-copy-2" transform="translate(124.000000, 463.000000)">
                <polygon id="Fill-1" points="0 40 40 40 40 0 0 0"></polygon>
                <path d="M31.68512,5.7344 L8.31472,5.7344 C6.89312,5.7344 5.73232,6.8872 5.73232,8.3144 L5.73232,31.6816 C5.73232,33.1096 6.89312,34.2656 8.31472,34.2656 L15.72112,34.2656 L15.72112,23.2768 L12.84752,23.2768 L12.84752,17.82 L15.72112,17.82 L15.72112,15.8544 C15.72112,14.3608 16.25552,13.0752 17.33072,12.008 C18.40352,10.9328 19.68512,10.3936 21.18352,10.3936 L27.15312,10.3936 L27.15312,14.8504 L24.03632,14.8504 C23.32112,14.8504 22.71072,15.108 22.20192,15.6232 C21.69312,16.1376 21.43472,16.7472 21.43472,17.4424 L21.43472,17.82 L25.68592,17.82 L25.68592,23.2768 L21.43472,23.2768 L21.43472,34.2656 L31.68512,34.2656 C33.11312,34.2656 34.26832,33.1096 34.26832,31.6816 L34.26832,8.3144 C34.26832,6.8872 33.11312,5.7344 31.68512,5.7344" id="Fill-2" fill="#FFFFFF"></path>
            </g>
        </g>
    </g>
</svg>