
<svg width="36px" height="36px" viewBox="0 0 36 36" version="1.1" xmlns="http://www.w3.org/2000/svg" xmlns:xlink="http://www.w3.org/1999/xlink">
    <g id="Stylesheet" stroke="none" stroke-width="1" fill="none" fill-rule="evenodd">
        <g id="Platino-Motors-Stylesheet" transform="translate(-813.000000, -3906.000000)">
            <g id="icon/instagram" transform="translate(806.000000, 3899.000000)">
                <polygon id="Fill-1" points="0 50 50 50 50 0 0 0"></polygon>
                <path d="M39.6069,7.1675 C41.3919,7.1675 42.8349,8.6095 42.8349,10.3925 L42.8349,10.3925 L42.8349,39.6015 C42.8349,41.3865 41.3919,42.8315 39.6069,42.8315 L39.6069,42.8315 L10.3939,42.8315 C8.6159,42.8315 7.1649,41.3865 7.1649,39.6015 L7.1649,39.6015 L7.1649,10.3925 C7.1649,8.6095 8.6159,7.1675 10.3939,7.1675 L10.3939,7.1675 Z M24.9999,14.7305 C19.3619,14.7305 14.7299,19.3615 14.7299,24.9995 C14.7299,30.6385 19.3619,35.2695 24.9999,35.2695 C30.6379,35.2695 35.2699,30.6385 35.2699,24.9995 C35.2699,19.3615 30.6379,14.7305 24.9999,14.7305 Z M25,18.3549 C28.625,18.3549 31.645,21.3759 31.645,24.9999 C31.645,28.6249 28.625,31.6449 25,31.6449 C21.375,31.6449 18.355,28.6249 18.355,24.9999 C18.355,21.3759 21.375,18.3549 25,18.3549 Z M36.2629,11.3205 C34.8529,11.3205 33.8469,12.3275 33.8469,13.7375 C33.8469,15.1465 34.8529,16.1535 36.2629,16.1535 C37.6729,16.1535 38.6789,15.1465 38.6789,13.7375 C38.6789,12.3275 37.6729,11.3205 36.2629,11.3205 Z" id="Combined-Shape" fill="#091033"></path>
            </g>
        </g>
    </g>
</svg>