<?xml version="1.0" encoding="UTF-8"?>
<svg width="229.209728px" height="229.999px" viewBox="0 0 229.209728 229.999" version="1.1" xmlns="http://www.w3.org/2000/svg" xmlns:xlink="http://www.w3.org/1999/xlink">
    <title>logo/pm-isotipo-white</title>
    <defs>
        <polygon id="path-1" points="0 0 146.896528 0 146.896528 229.999 0 229.999"></polygon>
        <polygon id="path-3" points="0 0 165.278793 0 165.278793 170.84 0 170.84"></polygon>
    </defs>
    <g id="logo/pm-isotipo-white" stroke="none" stroke-width="1" fill="none" fill-rule="evenodd">
        <g id="Group-3" transform="translate(82.313200, -0.000000)">
            <mask id="mask-2" fill="white">
                <use xlink:href="#path-1"></use>
            </mask>
            <g id="Clip-2"></g>
            <path d="M138.26,134.9032 L50.9,222.2532 C40.564,232.5812 23.816,232.5812 13.48,222.2532 L13.48,179.8032 C13.528,171.1932 20.547,164.2522 29.157,164.3002 C29.411,164.3012 29.666,164.3092 29.92,164.3232 L30.09,164.3232 C54.285,165.3582 75.726,148.8572 80.92,125.2032 C87.4,100.8432 78.37,70.3932 55.46,47.4832 C39.15,31.1732 19.04,21.9032 0,20.2532 L11.8,8.4532 C23.054,-2.8108 41.308,-2.8188 52.572,8.4352 L52.59,8.4532 L138.26,94.1132 C149.594,105.3122 149.829,123.4512 138.631,134.7852 C138.549,134.8672 138.468,134.9492 138.26,134.9032" id="Fill-1" fill="#272b49" mask="url(#mask-2)"></path>
        </g>
        <g id="Group-6" transform="translate(0.000000, 20.253200)">
            <mask id="mask-4" fill="white">
                <use xlink:href="#path-3"></use>
            </mask>
            <g id="Clip-5"></g>
            <path d="M163.2332,104.95 C169.1402,78.043 152.1152,51.442 125.2082,45.535 C98.3002,39.629 71.7002,56.653 65.7932,83.561 C65.0222,87.072 64.6332,90.655 64.6332,94.25 L64.6332,170.84 L8.4532,114.65 C-2.8108,103.396 -2.8188,85.142 8.4352,73.878 C8.4412,73.872 8.4472,73.866 8.4532,73.86 L82.3132,0 C101.3132,1.65 121.4632,10.92 137.7732,27.23 C160.6832,50.14 169.7132,80.59 163.2332,104.95" id="Fill-4" fill="#272b49" mask="url(#mask-4)"></path>
        </g>
    </g>
</svg>