
<svg width="26px" height="32px" viewBox="0 0 26 32" version="1.1" xmlns="http://www.w3.org/2000/svg" xmlns:xlink="http://www.w3.org/1999/xlink">
    <g id="Symbols" stroke="none" stroke-width="1" fill="none" fill-rule="evenodd">
        <g id="footer/desktop" transform="translate(-131.000000, -411.000000)">
            <g id="icon/phone" transform="translate(124.000000, 407.000000)">
                <path d="M22.34272,15.03872 C23.30192,16.57152 23.69952,18.12992 23.66032,19.70192 C23.61792,21.34032 23.10912,23.04032 22.25712,24.77472 L25.34752,26.28752 C26.40752,24.12032 27.04752,21.95152 27.10352,19.78272 C27.15952,17.55632 26.60432,15.36112 25.26192,13.21872 L22.34272,15.03872 Z M29.40272,8.80192 C31.63632,12.37152 32.56432,16.01232 32.46352,19.71872 C32.37312,23.35952 31.28832,27.02352 29.48832,30.70432 L26.39792,29.19392 C27.99072,25.94032 28.94352,22.74992 29.02432,19.63712 C29.09952,16.58112 28.33392,13.57792 26.48832,10.62672 L29.40272,8.80192 Z M13.69552,4.94352 L15.98992,4.94352 L19.86192,4.94352 L19.86192,12.82992 L14.74912,12.82992 C14.29152,17.47792 14.29552,22.25952 14.79472,27.16592 L19.86192,27.16592 L19.86192,35.05632 L15.98992,35.05632 L13.69552,35.05632 L8.96512,35.05632 C7.14512,24.83632 6.95872,14.78112 8.96512,4.94352 L13.69552,4.94352 Z" id="Fill-1" fill="#FFFFFF"></path>
                <polygon id="Fill-3" points="0 40 40 40 40 0 0 0"></polygon>
            </g>
        </g>
    </g>
</svg>