
<svg width="289px" height="100px" viewBox="0 0 289 100" version="1.1" xmlns="http://www.w3.org/2000/svg" xmlns:xlink="http://www.w3.org/1999/xlink">
    <defs>
        <linearGradient x1="37.2061998%" y1="91.4061496%" x2="52.6477921%" y2="17.6666975%" id="linearGradient-1a-e1wbvsg-1">
            <stop stop-color="#B50D21" offset="0%"></stop>
            <stop stop-color="#F72F26" offset="95%"></stop>
        </linearGradient>
        <linearGradient x1="79.9984866%" y1="20.7152892%" x2="24.8192926%" y2="82.5977523%" id="linearGradient-1a-e1wbvsg-2">
            <stop stop-color="#B50D21" offset="0%"></stop>
            <stop stop-color="#F72F26" offset="95%"></stop>
        </linearGradient>
    </defs>
    <g id="Symbols" stroke="none" stroke-width="1" fill="none" fill-rule="evenodd">
        <g id="footer/desktop" transform="translate(-124.000000, -133.000000)" fill-rule="nonzero">
            <g id="logo_motors-copy" transform="translate(124.500000, 133.000000)">
                <path d="M122.092707,8.28401177 L134.46662,8.28401177 C141.940534,8.28401177 147.484012,14.0231422 147.484012,21.153577 C147.484012,28.2840118 141.940534,34.0709683 134.414447,34.0709683 L128.823142,34.0709683 L128.823142,44.4144466 L122.092707,44.4144466 L122.092707,8.28401177 Z M128.823142,14.5187944 L128.823142,27.82749 L133.970968,27.82749 C135.764013,27.8854369 137.50175,27.2022195 138.775212,25.9386287 C140.048675,24.675038 140.745395,22.9426709 140.701403,21.1492292 C140.701403,17.4361857 137.931838,14.5144466 133.970968,14.5144466 L128.823142,14.5187944 Z" id="Shape" fill="#FFFFFF"></path>
                <polygon id="Path" fill="#FFFFFF" points="151.197055 7.7883596 157.92749 7.7883596 157.92749 44.4144466 151.197055 44.4144466"></polygon>
                <path d="M161.340534,29.9622726 C161.340534,20.3579248 168.370968,14.8666205 175.68836,14.8666205 C179.501403,14.8666205 182.86662,16.4014031 184.992707,18.9231422 L184.992707,15.4448813 L191.675316,15.4448813 L191.675316,44.4014031 L185.001403,44.4014031 L185.001403,40.653577 C182.69961,43.4688222 179.23284,45.0715824 175.597055,45.0014031 C168.618794,45.0100987 161.340534,39.4666205 161.340534,29.9622726 Z M185.349229,29.8622726 C185.349229,24.9144466 181.684012,20.953577 176.68836,20.953577 C171.692707,20.953577 167.92749,24.8666205 167.92749,29.8622726 C167.92749,34.8579248 171.740534,38.8709683 176.68836,38.8709683 C181.636186,38.8709683 185.349229,34.8622726 185.349229,29.8622726 L185.349229,29.8622726 Z" id="Shape" fill="#FFFFFF"></path>
                <path d="M219.601403,4.17531612 C222.210099,4.17531612 223.810099,5.85792481 223.810099,8.37966394 C223.810099,10.9014031 222.223142,12.5405335 219.601403,12.5405335 C216.879664,12.5405335 215.392707,10.9057509 215.392707,8.37966394 C215.392707,5.85357699 217.02749,4.17531612 219.601403,4.17531612 Z M216.236186,15.4579248 L222.96662,15.4579248 L222.96662,44.4144466 L216.236186,44.4144466 L216.236186,15.4579248 Z" id="Shape" fill="#FFFFFF"></path>
                <path d="M227.323142,15.4579248 L233.953577,15.4579248 L233.953577,19.0231422 C236.008219,16.3328675 239.225881,14.7878724 242.610099,14.8666205 C249.884012,14.8666205 254.092707,19.3709683 254.092707,27.2405335 L254.092707,44.4144466 L247.310099,44.4144466 L247.310099,27.9318379 C247.310099,23.42749 245.136186,20.6579248 240.78836,20.6579248 C236.979664,20.6579248 234.010099,23.42749 234.010099,28.52749 L234.010099,44.4144466 L227.323142,44.4144466 L227.323142,15.4579248 Z" id="Path" fill="#FFFFFF"></path>
                <path d="M257.514447,29.9622726 C257.54084,21.6842785 264.268211,14.9925507 272.546229,15.010098 C280.824247,15.0277144 287.523132,21.7479583 287.51437,30.02599 C287.505592,38.3040216 280.792483,45.010331 272.514447,45.010331 C268.521105,45.0323664 264.685566,43.4525788 261.866301,40.6243254 C259.047037,37.7960719 257.479467,33.9555227 257.514447,29.9622726 L257.514447,29.9622726 Z M280.92749,29.9622726 C280.92749,25.0622726 277.26662,21.153577 272.514447,21.153577 C267.762273,21.153577 264.097055,25.0666205 264.097055,29.9622726 C264.097055,34.7448813 267.714447,38.7231422 272.514447,38.7231422 C277.314447,38.7231422 280.92749,34.7840118 280.92749,29.9622726 Z" id="Shape" fill="#FFFFFF"></path>
                <path d="M206.631838,7.82749003 L199.901403,10.2796639 L199.901403,15.4579248 L194.949229,15.4579248 L194.949229,21.4492292 L199.901403,21.4492292 L199.901403,32.3187944 C199.901403,41.52749 202.623142,44.3970552 211.584012,44.3970552 L212.523142,44.3970552 L212.523142,38.1318379 C207.375316,38.1318379 206.631838,37.3361857 206.631838,32.2883596 L206.631838,21.4492292 L212.523142,21.4492292 L212.523142,15.4579248 L206.631838,15.4579248 L206.631838,7.82749003 Z" id="Path" fill="#FFFFFF"></path>
                <polygon id="Path" fill="#FFFFFF" points="158.257925 52.1231422 158.257925 88.4231422 154.218794 88.4231422 154.218794 59.1622726 140.197055 78.0883596 126.762273 59.6231422 126.762273 88.4231422 122.675316 88.4231422 122.675316 52.1231422 126.392707 52.1231422 140.262273 71.3318379 154.640534 52.1231422"></polygon>
                <path d="M176.253577,58.5014031 C170.085632,58.4890981 164.517772,62.1939472 162.146841,67.8880125 C159.77591,73.5820779 161.068947,80.143711 165.422881,84.5125728 C169.776815,88.8814346 176.333984,90.1969225 182.036131,87.8454943 C187.738278,85.494066 191.462162,79.9389191 191.470968,73.7709683 C191.520214,69.7153978 189.934475,65.8108059 187.071454,62.9379693 C184.208434,60.0651327 180.309292,58.4660389 176.253577,58.5014031 L176.253577,58.5014031 Z M176.253577,85.153577 C170.005751,85.153577 165.114447,80.153577 165.114447,73.7709683 C165.114447,67.3883596 170.005751,62.3448813 176.253577,62.3448813 C182.501403,62.3448813 187.344881,67.3666205 187.344881,73.7709683 C187.344881,80.1753161 182.475316,85.153577 176.253577,85.153577 L176.253577,85.153577 Z" id="Shape" fill="#FFFFFF"></path>
                <path d="M223.140534,58.5014031 C216.972589,58.4890981 211.404729,62.1939472 209.033797,67.8880125 C206.662866,73.5820779 207.955903,80.143711 212.309837,84.5125728 C216.663771,88.8814346 223.22094,90.1969225 228.923087,87.8454943 C234.625234,85.494066 238.349119,79.9389191 238.357925,73.7709683 C238.40717,69.7153978 236.821431,65.8108059 233.958411,62.9379693 C231.09539,60.0651327 227.196249,58.4660389 223.140534,58.5014031 L223.140534,58.5014031 Z M223.140534,85.153577 C216.892707,85.153577 211.997055,80.153577 211.997055,73.7709683 C211.997055,67.3883596 216.892707,62.3448813 223.140534,62.3448813 C229.38836,62.3448813 234.231838,67.3666205 234.231838,73.7709683 C234.231838,80.1753161 229.357925,85.153577 223.140534,85.153577 L223.140534,85.153577 Z" id="Shape" fill="#FFFFFF"></path>
                <path d="M259.884012,60.8100987 L257.48836,64.3318379 L256.944881,63.953577 C255.826956,63.0861943 254.446608,62.6260781 253.031838,62.6492292 C248.297055,62.6492292 245.584012,65.8187944 245.584012,71.3448813 L245.584012,88.4405335 L241.56662,88.4405335 L241.56662,59.0927074 L245.510099,59.0927074 L245.510099,62.3144466 C247.249229,60.0100987 249.857925,58.8057509 253.149229,58.8057509 C255.311612,58.7540539 257.442112,59.3342753 259.279664,60.4753161 L259.884012,60.8100987 Z" id="Path" fill="#FFFFFF"></path>
                <path d="M281.305751,80.0014031 C281.305751,84.3492292 277.82749,88.9927074 270.253577,88.9927074 C265.544881,88.9927074 261.223142,86.9405335 258.701403,83.5014031 L258.331838,82.9970552 L261.505751,80.4579248 L261.905751,81.0057509 C263.876406,83.6670311 266.989929,85.2391103 270.301403,85.2448813 C275.444881,85.2448813 277.257925,82.4187944 277.257925,80.0014031 C277.257925,76.9579248 273.68836,76.0883596 269.910099,75.1492292 L269.601403,75.0709683 C265.510099,74.0492292 259.901403,72.6492292 259.901403,66.7709683 C259.901403,62.0231422 264.32749,58.4492292 270.18836,58.4492292 C274.297055,58.4492292 278.014447,60.0100987 280.457925,62.7405335 L280.892707,63.2492292 L277.818794,65.753577 L277.384012,65.2840118 C275.479664,63.1448813 273.184012,62.1492292 270.149229,62.1492292 C266.297055,62.1492292 263.901403,63.8883596 263.901403,66.7231422 C263.901403,69.653577 267.318794,70.5057509 271.292707,71.5057509 C275.575316,72.5492292 281.305751,73.9666205 281.305751,80.0014031 Z" id="Path" fill="#FFFFFF"></path>
                <path d="M200.062273,52.2709683 L196.118794,53.7057509 L196.118794,59.0753161 L191.136186,59.0753161 L191.136186,62.8709683 L196.118794,62.8709683 L196.118794,77.753577 C196.118794,86.1318379 198.323142,88.4231422 206.357925,88.4231422 L207.444881,88.4231422 L207.444881,84.5796639 L206.792707,84.5796639 C201.005751,84.5796639 200.062273,83.6144466 200.062273,77.7057509 L200.062273,62.8709683 L207.453577,62.8709683 L207.453577,59.0753161 L200.062273,59.0753161 L200.062273,52.2709683 Z" id="Path" fill="#FFFFFF"></path>
                <path d="M95.9014031,58.653577 L57.9187944,96.6318379 C53.4250779,101.122139 46.1429456,101.122139 41.6492292,96.6318379 L41.6492292,96.6318379 L41.6492292,78.1753161 C41.6595587,76.3200247 42.4299262,74.5500608 43.7806808,73.2781823 C45.1314354,72.0063039 46.9444964,71.3436966 48.7970552,71.4448813 L48.8709683,71.4448813 C59.3907154,71.8947827 68.7125266,64.7204908 70.9709683,54.4361857 L70.9709683,54.4361857 C73.7883596,43.8448813 69.8622726,30.6057509 59.9014031,20.6448813 C52.8100987,13.553577 44.0666205,9.5231422 35.7883596,8.8057509 L40.9187944,3.67531612 C43.2698435,1.32216402 46.4598128,0 49.7861857,0 C53.1125586,0 56.3025279,1.32216402 58.653577,3.67531612 L95.9014031,40.9187944 C100.79702,45.8168266 100.79702,53.7555448 95.9014031,58.653577 Z" id="Path" fill="url(#linearGradient-1a-e1wbvsg-1)"></path>
                <path d="M70.9709683,54.4361857 C72.7523918,46.3208394 69.7407079,37.9010361 63.2163784,32.7565789 C56.6920489,27.6121217 47.8020205,26.6473823 40.3260194,30.2725338 C32.8500183,33.8976854 28.1022909,41.475443 28.1014031,49.7840118 L28.1014031,83.0840118 L3.67531612,58.653577 C1.32216402,56.3025279 0,53.1125586 0,49.7861857 C0,46.4598128 1.32216402,43.2698435 3.67531612,40.9187944 L35.7883596,8.8057509 C44.0492292,9.5231422 52.8100987,13.553577 59.9014031,20.6448813 C69.8622726,30.6057509 73.7883596,43.8448813 70.9709683,54.4361857 Z" id="Path" fill="url(#linearGradient-1a-e1wbvsg-2)"></path>
            </g>
        </g>
    </g>
</svg>