
<svg width="18px" height="12px" viewBox="0 0 18 12" version="1.1" xmlns="http://www.w3.org/2000/svg" xmlns:xlink="http://www.w3.org/1999/xlink">
    <g id="Catalog" stroke="none" stroke-width="1" fill="none" fill-rule="evenodd">
        <g id="Mobile---Item-View" transform="translate(-154.000000, -471.000000)">
            <rect fill="#FFFFFF" x="0" y="0" width="375" height="5522"></rect>
            <g id="button/secondary-copy-2" transform="translate(71.000000, 454.000000)">
                <g id="icon/pdf" transform="translate(82.000000, 13.000000)">
                    <polygon id="Fill-1" points="0 20 20 20 20 0 0 0"></polygon>
                    <path d="M13.45196,10.0004 C13.45196,8.0912 11.90756,6.5464 10.00116,6.5464 C8.09276,6.5464 6.54796,8.0912 6.54796,10.0004 C6.54796,11.9068 8.09276,13.4536 10.00116,13.4536 C11.90756,13.4536 13.45196,11.9068 13.45196,10.0004 M18.28876,10.0004 C18.28876,10.0004 14.57756,15.526 10.00116,15.526 C5.42316,15.526 1.71116,10.0004 1.71116,10.0004 C1.71116,10.0004 5.42316,4.474 10.00116,4.474 C14.57756,4.474 18.28876,10.0004 18.28876,10.0004 M11.37916,10.0004 C11.37916,10.7612 10.76196,11.3816 10.00116,11.3816 C9.23796,11.3816 8.62076,10.7612 8.62076,10.0004 C8.62076,9.2364 9.23796,8.6184 10.00116,8.6184 C10.76196,8.6184 11.37916,9.2364 11.37916,10.0004" id="Fill-2" fill="#050C44"></path>
                </g>
            </g>
        </g>
    </g>
</svg>