
<svg width="40px" height="40px" viewBox="0 0 40 40" version="1.1" xmlns="http://www.w3.org/2000/svg" xmlns:xlink="http://www.w3.org/1999/xlink">
    <g id="Symbols" stroke="none" stroke-width="1" fill="none" fill-rule="evenodd">
        <path d="M25.7216,30.957 C25.6236,31.428 25.5736,31.916 25.5736,32.416 C25.5736,36.365 28.7766,39.57 32.7276,39.57 C36.6806,39.57 39.8856,36.365 39.8856,32.416 C39.8856,28.463 36.6806,25.258 32.7276,25.258 C30.5576,25.258 28.6146,26.23 27.3036,27.756 L27.2896,27.75 C26.5246,28.658 25.9736,29.752 25.7196,30.957 L25.7216,30.957 Z M14.3096,21.365 C14.3796,20.957 14.4266,20.537 14.4266,20.107 C14.4266,19.613 14.3736,19.135 14.2806,18.668 C14.0246,17.457 13.4716,16.359 12.7006,15.447 L12.6926,15.451 C11.3816,13.922 9.4426,12.951 7.2686,12.951 C3.3156,12.951 0.1146,16.156 0.1146,20.107 C0.1146,24.061 3.3156,27.264 7.2686,27.264 C9.5126,27.264 11.5126,26.23 12.8266,24.613 L23.5166,29.875 C23.8426,28.701 24.3816,27.619 25.0926,26.67 L14.3096,21.365 Z M16.4756,17.57 C16.1476,16.398 15.6066,15.316 14.8976,14.367 L25.7216,9.041 C25.6236,8.57 25.5736,8.084 25.5736,7.586 C25.5736,3.631 28.7766,0.43 32.7276,0.43 C36.6806,0.43 39.8856,3.631 39.8856,7.586 C39.8856,11.537 36.6806,14.74 32.7276,14.74 C30.5576,14.74 28.6146,13.77 27.3036,12.242 L16.4756,17.57 Z" id="Fill-2" fill="#091033"></path>
    </g>
</svg>