
<svg width="48px" height="40px" viewBox="0 0 48 40" version="1.1" xmlns="http://www.w3.org/2000/svg" xmlns:xlink="http://www.w3.org/1999/xlink">
    <g id="Symbols" stroke="none" stroke-width="1" fill="none" fill-rule="evenodd">
        <path d="M43.999,19.998 C43.999,15.799 42.69,11.91 40.479,8.689 C40.444,8.639 40.419,8.576 40.382,8.523 C40.112,8.135 39.81,7.769 39.513,7.396 C39.474,7.352 39.442,7.309 39.405,7.266 C37.374,4.801 34.829,2.896 31.942,1.654 C31.86,1.625 31.786,1.586 31.702,1.549 C31.241,1.357 30.768,1.187 30.296,1.029 C30.128,0.975 29.958,0.91 29.78,0.859 C29.37,0.734 28.948,0.635 28.526,0.541 C28.284,0.484 28.061,0.426 27.821,0.375 C27.708,0.355 27.593,0.318 27.481,0.301 C27.161,0.242 26.843,0.219 26.528,0.18 C26.308,0.154 26.093,0.117 25.872,0.1 C25.343,0.047 24.813,0.021 24.286,0.016 C24.188,0.016 24.095,0.004 24.001,0.004 C23.981,0.004 23.97,0.01 23.95,0.01 C19.892,0.01 15.931,1.238 12.534,3.613 C11.452,4.379 11.186,5.873 11.944,6.963 C12.706,8.045 14.206,8.31 15.288,7.547 C17.911,5.707 20.976,4.781 24.116,4.807 C24.567,4.812 25.011,4.832 25.45,4.875 C25.581,4.889 25.716,4.912 25.853,4.928 C26.212,4.969 26.571,5.021 26.923,5.09 C27.083,5.121 27.233,5.158 27.384,5.195 C27.731,5.273 28.077,5.353 28.419,5.463 C28.526,5.494 28.626,5.531 28.735,5.568 C29.126,5.693 29.501,5.828 29.874,5.986 C29.911,6.004 29.952,6.023 29.989,6.035 C32.228,7 34.185,8.482 35.716,10.334 C35.731,10.342 35.737,10.357 35.747,10.365 C37.897,12.992 39.196,16.342 39.196,19.998 L35.202,19.998 L41.599,29.59 L47.995,19.998 L43.999,19.998 Z M36.058,33.031 C36.821,34.117 36.558,35.609 35.472,36.371 C32.071,38.754 28.103,39.996 24.038,39.996 C23.378,39.996 22.708,39.959 22.038,39.889 C21.907,39.877 21.776,39.85 21.642,39.84 C21.272,39.795 20.899,39.756 20.53,39.687 C20.421,39.668 20.313,39.637 20.208,39.617 C19.938,39.568 19.675,39.498 19.419,39.439 C19.028,39.346 18.634,39.252 18.253,39.139 C18.046,39.076 17.835,39.002 17.636,38.93 C17.192,38.785 16.763,38.629 16.341,38.457 C16.218,38.402 16.097,38.346 15.968,38.295 C15.479,38.074 14.995,37.846 14.52,37.59 C14.472,37.57 14.425,37.537 14.382,37.519 C12.735,36.611 11.229,35.484 9.893,34.146 C9.851,34.107 9.819,34.07 9.782,34.035 C9.384,33.623 8.993,33.207 8.634,32.768 C8.534,32.646 8.448,32.527 8.354,32.414 C8.11,32.098 7.851,31.795 7.624,31.463 C7.595,31.42 7.569,31.373 7.544,31.322 C5.319,28.103 3.999,24.201 3.999,19.998 L0.005,19.998 L6.401,10.396 L12.802,19.998 L8.802,19.998 C8.802,23.578 10.058,26.861 12.132,29.465 C12.194,29.539 12.251,29.615 12.315,29.689 C12.597,30.037 12.907,30.371 13.224,30.693 C13.235,30.705 13.255,30.725 13.274,30.744 C14.288,31.764 15.454,32.635 16.726,33.334 C16.747,33.34 16.759,33.353 16.774,33.359 C17.157,33.561 17.54,33.744 17.937,33.914 C18.015,33.951 18.087,33.99 18.161,34.021 C18.497,34.16 18.843,34.279 19.192,34.393 C19.335,34.443 19.476,34.494 19.62,34.539 C19.923,34.633 20.231,34.701 20.534,34.777 C20.729,34.822 20.919,34.865 21.112,34.91 C21.429,34.967 21.751,35.012 22.073,35.055 C22.241,35.074 22.405,35.105 22.577,35.117 C22.987,35.156 23.403,35.174 23.819,35.18 C26.981,35.225 30.071,34.293 32.716,32.437 C33.802,31.682 35.304,31.939 36.058,33.031 L36.058,33.031 Z" id="Fill-2" fill="#FFFFFF"></path>
    </g>
</svg>