
<svg width="38px" height="38px" viewBox="0 0 38 38" version="1.1" xmlns="http://www.w3.org/2000/svg" xmlns:xlink="http://www.w3.org/1999/xlink">
    <g id="Stylesheet" stroke="none" stroke-width="1" fill="none" fill-rule="evenodd">
        <g id="Platino-Motors-Stylesheet" transform="translate(-552.000000, -3840.000000)">
            <g id="icon/whatsapp" transform="translate(546.000000, 3834.000000)">
                <polygon id="Fill-1" points="0 50 50 50 50 0 0 0"></polygon>
                <path d="M36.0604,32.8304 C35.6024,34.1244 33.7824,35.1984 32.3314,35.5114 C31.3394,35.7234 30.0424,35.8914 25.6774,34.0824 C20.0934,31.7684 16.4974,26.0954 16.2174,25.7264 C15.9494,25.3584 13.9614,22.7224 13.9614,19.9964 C13.9614,17.2694 15.3454,15.9414 15.9034,15.3714 C16.3624,14.9044 17.1194,14.6904 17.8464,14.6904 C18.0814,14.6904 18.2934,14.7024 18.4834,14.7114 C19.0414,14.7354 19.3214,14.7684 19.6894,15.6494 C20.1474,16.7544 21.2644,19.4804 21.3974,19.7604 C21.5324,20.0414 21.6674,20.4214 21.4774,20.7894 C21.2994,21.1694 21.1434,21.3374 20.8624,21.6604 C20.5824,21.9834 20.3164,22.2304 20.0364,22.5774 C19.7794,22.8794 19.4904,23.2024 19.8134,23.7604 C20.1364,24.3064 21.2524,26.1284 22.8954,27.5914 C25.0164,29.4794 26.7364,30.0824 27.3514,30.3394 C27.8094,30.5294 28.3564,30.4844 28.6904,30.1274 C29.1154,29.6694 29.6404,28.9094 30.1754,28.1614 C30.5554,27.6244 31.0354,27.5584 31.5384,27.7484 C32.0514,27.9264 34.7664,29.2684 35.3244,29.5454 C35.8824,29.8264 36.2504,29.9594 36.3854,30.1944 C36.5184,30.4294 36.5184,31.5334 36.0604,32.8304 M25.0044,6.0004 L24.9954,6.0004 C14.5194,6.0004 6.0004,14.5214 6.0004,25.0004 C6.0004,29.1564 7.3394,33.0084 9.6174,36.1364 L7.2494,43.1954 L14.5524,40.8604 C17.5564,42.8504 21.1404,44.0004 25.0044,44.0004 C35.4814,44.0004 44.0004,35.4764 44.0004,25.0004 C44.0004,14.5244 35.4814,6.0004 25.0044,6.0004" id="Fill-2" fill="#091033"></path>
            </g>
        </g>
    </g>
</svg>